<svg xmlns="http://www.w3.org/2000/svg"><defs>
<filter id="filter0_d" x="26.75" y="21.343" width="36.25" height="40.314" filterUnits="userSpaceOnUse" color-interpolation-filters="sRGB">
<feFlood flood-opacity="0" result="BackgroundImageFix"/>
<feColorMatrix in="SourceAlpha" type="matrix" values="0 0 0 0 0 0 0 0 0 0 0 0 0 0 0 0 0 0 127 0" result="hardAlpha"/>
<feOffset dy="1"/>
<feGaussianBlur stdDeviation="2"/>
<feColorMatrix type="matrix" values="0 0 0 0 0 0 0 0 0 0 0 0 0 0 0 0 0 0 0.852218 0"/>
<feBlend mode="normal" in2="BackgroundImageFix" result="effect1_dropShadow"/>
<feBlend mode="normal" in="SourceGraphic" in2="effect1_dropShadow" result="shape"/>
</filter>
</defs><symbol id="icon-arr-next" viewBox="0 0 12 23">
<path opacity="0.700126" fill-rule="evenodd" clip-rule="evenodd" d="M11.7468 10.8688L1.46972 0.260092C1.133 -0.0872877 0.587846 -0.0867037 0.251693 0.261889C-0.0842001 0.610436 -0.0833322 1.17506 0.253429 1.52271L9.91881 11.5L0.253081 21.4773C-0.0836359 21.825 -0.0845039 22.3893 0.251346 22.7379C0.419856 22.9126 0.640617 23 0.861377 23C1.08157 23 1.30147 22.9132 1.46967 22.7397L11.7468 12.1312C11.909 11.9642 12 11.7369 12 11.5C12 11.2632 11.9087 11.0362 11.7468 10.8688Z" fill="#363838"/>
</symbol><symbol id="icon-arr-prew" viewBox="0 0 12 23">
<path opacity="0.700126" fill-rule="evenodd" clip-rule="evenodd" d="M0.253179 10.8688L10.5303 0.260092C10.867 -0.0872877 11.4122 -0.0867037 11.7483 0.261889C12.0842 0.610436 12.0833 1.17506 11.7466 1.52271L2.08119 11.5L11.7469 21.4773C12.0836 21.825 12.0845 22.3893 11.7487 22.7379C11.5801 22.9126 11.3594 23 11.1386 23C10.9184 23 10.6985 22.9132 10.5303 22.7397L0.253179 12.1312C0.0910044 11.9642 0 11.7369 0 11.5C0 11.2632 0.0912647 11.0362 0.253179 10.8688Z" fill="#363838"/>
</symbol><symbol id="icon-arrow-back" viewBox="0 0 6 12">
<g opacity="0.700126">
<path d="M0.126589 6.3293L5.26514 11.8643C5.4335 12.0455 5.70608 12.0452 5.87415 11.8634C6.0421 11.6815 6.04167 11.3869 5.87329 11.2055L1.0406 5.99998L5.87346 0.794435C6.04182 0.613029 6.04225 0.318631 5.87433 0.136757C5.79007 0.0455856 5.67969 0 5.56931 0C5.45921 0 5.34927 0.0452805 5.26516 0.135819L0.126589 5.67068C0.0455022 5.75782 0 5.87642 0 5.99998C0 6.12354 0.0456324 6.24199 0.126589 6.3293Z" fill="black"/>
</g>
</symbol><symbol id="icon-arrow-left" viewBox="0 0 10 17">
<path d="M0.470814 7.29199C0.555523 7.206 0.647415 7.13343 0.744097 7.07031L7.21188 0.481925C7.84285 -0.16054 8.86654 -0.160845 9.49781 0.48223C10.1291 1.125 10.1291 2.16752 9.49781 2.8109L3.9277 8.48514L9.52655 14.189C10.1578 14.8317 10.1578 15.8739 9.52655 16.5176C9.21076 16.8396 8.79679 17 8.38373 17C7.97066 17 7.5564 16.8396 7.24091 16.5176L0.744097 9.89874C0.647415 9.83562 0.554924 9.76305 0.470814 9.67706C0.148144 9.34836 -0.00750451 8.91538 0.000277895 8.48453C-0.00750451 8.05367 0.148144 7.62099 0.470814 7.29199Z" fill="black"/>
</symbol><symbol id="icon-arrow-next" viewBox="0 0 6 12">
<g opacity="0.700126">
<path d="M5.87341 5.6707L0.734858 0.1357C0.5665 -0.0455414 0.293923 -0.0452368 0.125846 0.136638C-0.0421 0.318488 -0.0416661 0.613073 0.126714 0.794455L4.9594 6.00002L0.126541 11.2056C-0.041818 11.387 -0.0422519 11.6814 0.125673 11.8632C0.209928 11.9544 0.320308 12 0.430689 12C0.540787 12 0.650733 11.9547 0.734837 11.8642L5.87341 6.32932C5.9545 6.24218 6 6.12358 6 6.00002C6 5.87646 5.95437 5.75801 5.87341 5.6707Z" fill="black"/>
</g>
</symbol><symbol id="icon-arrow-right" viewBox="0 0 10 17">
<path d="M9.52862 7.29242C9.44481 7.20643 9.35202 7.13386 9.25564 7.07074L2.78769 0.481933C2.15643 -0.160543 1.13336 -0.160848 0.501805 0.482238C-0.129455 1.12502 -0.129455 2.16756 0.501805 2.81095L6.0724 8.48529L0.47367 14.1895C-0.15789 14.832 -0.15789 15.8748 0.47367 16.5182C0.789449 16.8393 1.20281 17 1.61616 17C2.02952 17 2.44378 16.8393 2.75866 16.5176L9.25564 9.89983C9.35202 9.83671 9.44451 9.76445 9.52862 9.67815C9.85188 9.34883 10.0069 8.91645 9.99974 8.48529C10.0072 8.05382 9.85188 7.62083 9.52862 7.29242Z" fill="black"/>
</symbol><symbol id="icon-close" viewBox="0 0 26 26">
<path fill-rule="evenodd" clip-rule="evenodd" d="M14.4364 13.0001L25.7025 1.73384C26.0992 1.33718 26.0992 0.69409 25.7025 0.297489C25.3059 -0.0991123 24.6628 -0.0991631 24.2662 0.297489L13 11.5637L1.73383 0.297489C1.33718 -0.0991631 0.694089 -0.0991631 0.297488 0.297489C-0.099112 0.694141 -0.0991628 1.33723 0.297488 1.73384L11.5636 13L0.297488 24.2662C-0.0991628 24.6629 -0.0991628 25.306 0.297488 25.7026C0.495789 25.9009 0.755737 26 1.01569 26C1.27563 26 1.53553 25.9009 1.73388 25.7026L13 14.4364L24.2661 25.7026C24.4644 25.9009 24.7244 26 24.9843 26C25.2443 26 25.5042 25.9009 25.7025 25.7026C26.0992 25.3059 26.0992 24.6628 25.7025 24.2662L14.4364 13.0001Z" fill="#363838"/>
</symbol><symbol id="icon-email" viewBox="0 0 16 12">
<path d="M14.5 0H1.5C0.65625 0 0 0.6875 0 1.5V10.5C0 11.3438 0.65625 12 1.5 12H14.5C15.3125 12 16 11.3438 16 10.5V1.5C16 0.6875 15.3125 0 14.5 0ZM14.5 1.5V2.78125C13.7812 3.375 12.6562 4.25 10.2812 6.125C9.75 6.53125 8.71875 7.53125 8 7.5C7.25 7.53125 6.21875 6.53125 5.6875 6.125C3.3125 4.25 2.1875 3.375 1.5 2.78125V1.5H14.5ZM1.5 10.5V4.71875C2.1875 5.28125 3.21875 6.09375 4.75 7.3125C5.4375 7.84375 6.65625 9.03125 8 9C9.3125 9.03125 10.5 7.84375 11.2188 7.3125C12.75 6.09375 13.7812 5.28125 14.5 4.71875V10.5H1.5Z"/>
</symbol><symbol id="icon-facebook" viewBox="0 0 16 16">
<path d="M15.75 8C15.75 3.71875 12.2812 0.25 8 0.25C3.71875 0.25 0.25 3.71875 0.25 8C0.25 11.875 3.0625 15.0938 6.78125 15.6562V10.25H4.8125V8H6.78125V6.3125C6.78125 4.375 7.9375 3.28125 9.6875 3.28125C10.5625 3.28125 11.4375 3.4375 11.4375 3.4375V5.34375H10.4688C9.5 5.34375 9.1875 5.9375 9.1875 6.5625V8H11.3438L11 10.25H9.1875V15.6562C12.9062 15.0938 15.75 11.875 15.75 8Z"/>
</symbol><symbol id="icon-graphic" viewBox="0 0 41 42">
<path fill-rule="evenodd" clip-rule="evenodd" d="M38.5429 35.0134C38.5429 35.0134 7.36406 35.0007 7.35797 35.0008C6.74437 34.9927 6.41299 35.0395 5.5963 35.4054L0.548091 37.6655C0.209739 37.8157 -0.000319602 38.1374 3.65018e-07 38.505C0.000321064 38.8687 0.215825 39.1989 0.545688 39.3446C2.20133 40.0881 5.59606 41.6079 5.59606 41.6079C6.36038 41.9503 6.69168 41.9887 7.23472 41.9887L19.4558 42C19.7875 42 20.0564 41.7302 20.0564 41.3974C20.0564 41.0647 19.7875 40.7949 19.4558 40.7949C19.4558 40.7949 8.02611 40.7952 7.97662 40.7956V39.1092H34.515V40.7949H22.4381C22.1064 40.7949 21.8375 41.0647 21.8375 41.3974C21.8375 41.7302 22.1064 42 22.4381 42H38.543C39.8977 42 41 40.8961 41 39.5393V37.4741C40.9999 36.1173 39.8977 35.0134 38.5429 35.0134ZM3.48523 37.6702V39.3424L2.90687 39.0833L2.90676 39.0833L2.90664 39.0832L2.90653 39.0832C2.47737 38.891 2.04823 38.6988 1.61848 38.506L3.48523 37.6702ZM4.68647 37.1324V39.8806C5.12493 40.0769 6.59662 40.7243 6.77537 40.7655V36.248C6.59662 36.2893 4.68647 37.1324 4.68647 37.1324ZM7.9767 37.9042V36.2178C8.02619 36.2182 8.07712 36.2185 8.13118 36.2185H34.5151V37.9042H7.9767ZM38.5429 40.7949C39.2354 40.7949 39.7987 40.2317 39.7987 39.5393V37.474C39.7987 36.7817 39.2353 36.2185 38.5429 36.2185H35.7163V40.7949H38.5429Z" fill="black"/>
<path fill-rule="evenodd" clip-rule="evenodd" d="M1.06259 32L19.9413 31.9977C20.2828 31.9977 20.5596 31.7241 20.5596 31.3867C20.5595 31.0493 20.2826 30.7758 19.9412 30.7759L1.23662 30.7781V5.84759H3.70863V26.2707C3.70863 26.8252 4.16552 27.2762 4.72719 27.2762H30.3662C30.79 27.2762 31.1583 27.0502 31.3048 26.7004C31.4508 26.3515 31.3541 25.9619 31.0459 25.6581L10.9531 5.84759H33.6949V25.2193C33.6949 25.7901 34.1653 26.2544 34.7435 26.2544H37.469C38.7342 26.2544 39.7635 27.2686 39.7635 28.5151C39.7635 29.7617 38.7342 30.7758 37.469 30.7758H22.78C22.4384 30.7758 22.1616 31.0493 22.1616 31.3867C22.1616 31.7241 22.4384 31.9976 22.78 31.9976H37.4689C39.4159 31.9976 41 30.4354 41 28.5151V5.61079C41 3.68923 39.4159 2.12599 37.4689 2.12599H34.7434C34.1652 2.12599 33.6948 2.58932 33.6948 3.15886V4.62582H9.71374L5.34674 0.320096C5.03775 0.0154475 4.64178 -0.0787979 4.28736 0.0678242C3.93287 0.214609 3.70566 0.579047 3.70863 0.992032V4.62574H1.0625C0.476676 4.62574 0 5.09729 0 5.67693V30.9489C0 31.5284 0.476676 32 1.06259 32ZM34.9315 3.34776H37.4689C38.7341 3.34776 39.7634 4.36287 39.7634 5.61071V25.87C39.1458 25.3481 38.344 25.0325 37.4689 25.0325H34.9315V3.34776ZM29.6968 26.0545L4.94525 1.65045V26.0545H7.5978V25.1965C7.5978 24.8591 7.87464 24.5856 8.21611 24.5856C8.55758 24.5856 8.83442 24.8591 8.83442 25.1965V26.0545H11.4891V24.3891C11.4891 24.0517 11.766 23.7782 12.1074 23.7782C12.4489 23.7782 12.7257 24.0517 12.7257 24.3891V26.0545H15.3782V25.1965C15.3782 24.8591 15.655 24.5856 15.9965 24.5856C16.338 24.5856 16.6148 24.8591 16.6148 25.1965V26.0545H19.2697V24.3891C19.2697 24.0517 19.5465 23.7782 19.888 23.7782C20.2295 23.7782 20.5063 24.0517 20.5063 24.3891V26.0545H23.1588V25.1965C23.1588 24.8591 23.4355 24.5856 23.7771 24.5856C24.1186 24.5856 24.3954 24.8591 24.3954 25.1965V26.0545H29.6968Z" fill="black"/>
<path fill-rule="evenodd" clip-rule="evenodd" d="M16.6877 22H10.4888C10.0471 22 9.76179 21.7074 9.76172 21.2544V14.9056C9.76172 14.666 9.76172 14.2202 10.1646 14.0496C10.561 13.8818 10.8466 14.1763 11.055 14.3914L17.1918 20.6744C17.4006 20.8881 17.6864 21.1808 17.5227 21.587C17.3562 22 16.9213 22 16.6877 22ZM15.7808 20.8518L10.8808 15.8349V20.8518H15.7808Z" fill="black"/>
</symbol><symbol id="icon-inst" viewBox="0 0 14 15">
<path d="M7 3.40625C5 3.40625 3.40625 5.03125 3.40625 7C3.40625 9 5 10.5938 7 10.5938C8.96875 10.5938 10.5938 9 10.5938 7C10.5938 5.03125 8.96875 3.40625 7 3.40625ZM7 9.34375C5.71875 9.34375 4.65625 8.3125 4.65625 7C4.65625 5.71875 5.6875 4.6875 7 4.6875C8.28125 4.6875 9.3125 5.71875 9.3125 7C9.3125 8.3125 8.28125 9.34375 7 9.34375ZM11.5625 3.28125C11.5625 2.8125 11.1875 2.4375 10.7188 2.4375C10.25 2.4375 9.875 2.8125 9.875 3.28125C9.875 3.75 10.25 4.125 10.7188 4.125C11.1875 4.125 11.5625 3.75 11.5625 3.28125ZM13.9375 4.125C13.875 3 13.625 2 12.8125 1.1875C12 0.375 11 0.125 9.875 0.0625C8.71875 0 5.25 0 4.09375 0.0625C2.96875 0.125 2 0.375 1.15625 1.1875C0.34375 2 0.09375 3 0.03125 4.125C-0.03125 5.28125 -0.03125 8.75 0.03125 9.90625C0.09375 11.0312 0.34375 12 1.15625 12.8438C2 13.6562 2.96875 13.9062 4.09375 13.9688C5.25 14.0312 8.71875 14.0312 9.875 13.9688C11 13.9062 12 13.6562 12.8125 12.8438C13.625 12 13.875 11.0312 13.9375 9.90625C14 8.75 14 5.28125 13.9375 4.125ZM12.4375 11.125C12.2188 11.75 11.7188 12.2188 11.125 12.4688C10.1875 12.8438 8 12.75 7 12.75C5.96875 12.75 3.78125 12.8438 2.875 12.4688C2.25 12.2188 1.78125 11.75 1.53125 11.125C1.15625 10.2188 1.25 8.03125 1.25 7C1.25 6 1.15625 3.8125 1.53125 2.875C1.78125 2.28125 2.25 1.8125 2.875 1.5625C3.78125 1.1875 5.96875 1.28125 7 1.28125C8 1.28125 10.1875 1.1875 11.125 1.5625C11.7188 1.78125 12.1875 2.28125 12.4375 2.875C12.8125 3.8125 12.7188 6 12.7188 7C12.7188 8.03125 12.8125 10.2188 12.4375 11.125Z"/>
</symbol><symbol id="icon-logo" viewBox="0 0 64 60">
<circle cx="30" cy="30" r="29.5" stroke="white" fill="transparent"/>
<path d="M63.2078 10.5356L61.0769 7.42788L59.2867 5.8765L59.2701 4.60788L58.4212 4L57.3559 6.26637L55.7459 5.22236L55.1886 5.78887L55.8148 7.0446L46.5703 15.8584L32.0115 22.9515L27.644 23.9181L26.6165 24.4447L23.9038 27.9511L22.7772 31.7466L22.5127 33.8448L23.0969 35.0974L23.1586 34.6399L24.1991 30.8548L23.2062 38.4985L22.0798 41.9438L20 52.4316H21.8884L21.3175 51.4826L22.3093 46.4718L26.0545 38.9928L25.3657 41.8043L28.2919 52.4316H30.2819L29.4497 51.3724L28.0537 47.2084L27.4639 40.9549L29.6087 36.0147L30.8934 34.7613L36.845 34.77L37.8978 35.8196L35.9732 50.1469L36.05 52.4316H37.9439L37.2455 51.3825L37.506 45.9273L40.4114 35.9413L40.7681 35.9438L47.1446 52.4316H49.0591L48.0865 51.4382L46.353 46.7498L43.6351 34.9205L44.3556 28.8518L44.0028 27.1587L44.3345 25.9676L56.7052 11.9222L58.5897 11.5542L63.3487 13.2859L63.6867 11.9442L63.2078 10.5356Z" fill="white"/>
</symbol><symbol id="icon-maindirection-car" viewBox="0 0 85 85">
<circle cx="42.5" cy="42.5" r="42" stroke="white"/>
<path d="M63.6746 56.3348H59.3157C59.1437 56.3348 58.9787 56.2665 58.857 56.1448C58.7354 56.0232 58.667 55.8582 58.667 55.6862C58.667 55.5141 58.7354 55.3491 58.857 55.2275C58.9787 55.1058 59.1437 55.0375 59.3157 55.0375H63.6746C63.7898 55.0373 63.9003 54.9915 63.9817 54.91C64.0632 54.8286 64.109 54.7181 64.1092 54.6029V52.5532C64.1077 51.1481 63.5488 49.8011 62.5553 48.8076C61.5618 47.8141 60.2148 47.2553 58.8098 47.2537H21.2984V53.8505C21.2987 54.1652 21.4239 54.4669 21.6464 54.6895C21.869 54.912 22.1707 55.0372 22.4854 55.0375H25.2422C25.4142 55.0375 25.5792 55.1058 25.7008 55.2275C25.8225 55.3491 25.8908 55.5141 25.8908 55.6862C25.8908 55.8582 25.8225 56.0232 25.7008 56.1448C25.5792 56.2665 25.4142 56.3348 25.2422 56.3348H22.4854C21.8268 56.3341 21.1953 56.0722 20.7295 55.6064C20.2637 55.1406 20.0018 54.5091 20.0011 53.8505V46.6051C20.0011 46.433 20.0694 46.2681 20.1911 46.1464C20.3127 46.0248 20.4777 45.9564 20.6497 45.9564H58.8098C60.5587 45.9583 62.2356 46.6539 63.4723 47.8907C64.709 49.1274 65.4046 50.8042 65.4065 52.5532V54.6029C65.406 55.0621 65.2234 55.5023 64.8987 55.827C64.574 56.1517 64.1338 56.3343 63.6746 56.3348Z" fill="white"/>
<path d="M51.3503 56.3349H33.4022C33.2302 56.3349 33.0652 56.2666 32.9435 56.1449C32.8219 56.0233 32.7535 55.8583 32.7535 55.6862C32.7535 55.5142 32.8219 55.3492 32.9435 55.2276C33.0652 55.1059 33.2302 55.0376 33.4022 55.0376H51.3503C51.5223 55.0376 51.6873 55.1059 51.8089 55.2276C51.9306 55.3492 51.9989 55.5142 51.9989 55.6862C51.9989 55.8583 51.9306 56.0233 51.8089 56.1449C51.6873 56.2666 51.5223 56.3349 51.3503 56.3349Z" fill="white"/>
<path d="M20.6498 47.2571C20.6022 47.257 20.5548 47.2518 20.5084 47.2415C20.4252 47.2231 20.3464 47.1884 20.2766 47.1396C20.2068 47.0907 20.1474 47.0286 20.1016 46.9567C20.0558 46.8848 20.0246 46.8047 20.0098 46.7208C19.9951 46.6368 19.9969 46.5508 20.0154 46.4677C20.844 43.2415 22.7611 40.4003 25.4427 38.4244C26.297 37.8356 27.311 37.5221 28.3486 37.526H44.7296C45.6118 37.5271 46.4844 37.7102 47.2926 38.064C48.1008 38.4178 48.8272 38.9347 49.4264 39.5823L55.5043 46.1673C55.566 46.2291 55.6147 46.3027 55.6473 46.3837C55.6799 46.4647 55.6958 46.5515 55.6941 46.6388C55.6923 46.7262 55.673 46.8122 55.6372 46.8919C55.6014 46.9715 55.5498 47.0432 55.4857 47.1024C55.4215 47.1617 55.3461 47.2074 55.2638 47.2368C55.1816 47.2661 55.0942 47.2786 55.007 47.2734C54.9199 47.2683 54.8346 47.2455 54.7564 47.2066C54.6783 47.1677 54.6087 47.1133 54.5521 47.0469L48.4768 40.4638C47.999 39.9476 47.4198 39.5357 46.7755 39.2536C46.1311 38.9716 45.4355 38.8255 44.7322 38.8246H28.3492C27.5746 38.8218 26.8177 39.0561 26.1802 39.496C22.3434 42.1444 21.2932 46.7031 21.2835 46.7492C21.2515 46.8933 21.1712 47.0222 21.056 47.1146C20.9407 47.2069 20.7975 47.2572 20.6498 47.2571Z" fill="white"/>
<path d="M40.758 47.2571C40.6032 47.2568 40.4536 47.2013 40.3362 47.1004C40.2187 46.9995 40.1413 46.86 40.1177 46.707L38.8205 38.2746C38.8042 38.1889 38.8054 38.1008 38.8239 38.0156C38.8425 37.9304 38.878 37.8499 38.9284 37.7787C38.9788 37.7076 39.043 37.6473 39.1173 37.6015C39.1915 37.5558 39.2742 37.5254 39.3604 37.5124C39.4466 37.4993 39.5345 37.5037 39.619 37.5254C39.7034 37.547 39.7827 37.5855 39.8519 37.6385C39.9212 37.6915 39.979 37.7579 40.022 37.8338C40.065 37.9096 40.0923 37.9933 40.1022 38.08L41.3995 46.5124C41.4133 46.6047 41.407 46.6988 41.3811 46.7885C41.3552 46.8781 41.3103 46.9611 41.2494 47.0318C41.1885 47.1025 41.1131 47.1592 41.0283 47.1981C40.9435 47.2369 40.8513 47.2571 40.758 47.2571Z" fill="white"/>
<path d="M28.4337 47.2571C28.369 47.2572 28.3046 47.2473 28.243 47.2279C28.0786 47.1773 27.9411 47.0636 27.8606 46.9117C27.78 46.7598 27.7631 46.5821 27.8135 46.4177L30.4081 37.9853C30.4332 37.9039 30.474 37.8282 30.5283 37.7625C30.5826 37.6968 30.6493 37.6425 30.7246 37.6027C30.7999 37.5628 30.8823 37.5381 30.9671 37.5301C31.0519 37.5221 31.1375 37.5308 31.219 37.5559C31.3004 37.5809 31.3761 37.6218 31.4417 37.6761C31.5074 37.7304 31.5617 37.7971 31.6016 37.8724C31.6415 37.9476 31.6661 38.0301 31.6741 38.1149C31.6822 38.1997 31.6734 38.2853 31.6484 38.3667L29.0538 46.7991C29.013 46.9317 28.9307 47.0478 28.8191 47.1302C28.7075 47.2126 28.5724 47.2571 28.4337 47.2571Z" fill="white"/>
<path d="M55.3389 60.5121C54.422 60.5123 53.5257 60.2405 52.7632 59.7312C52.0007 59.2218 51.4064 58.4979 51.0555 57.6508C50.7045 56.8037 50.6126 55.8715 50.7914 54.9722C50.9702 54.0729 51.4117 53.2468 52.06 52.5984C52.7083 51.95 53.5343 51.5084 54.4336 51.3295C55.3329 51.1506 56.2651 51.2423 57.1122 51.5932C57.9594 51.944 58.6834 52.5382 59.1929 53.3006C59.7023 54.063 59.9742 54.9593 59.9742 55.8762C59.9728 57.1052 59.484 58.2835 58.6151 59.1526C57.7461 60.0217 56.5679 60.5106 55.3389 60.5121ZM55.3389 52.5383C54.6786 52.5382 54.033 52.7339 53.4839 53.1007C52.9347 53.4675 52.5067 53.9889 52.254 54.599C52.0012 55.209 51.935 55.8804 52.0638 56.5281C52.1926 57.1758 52.5106 57.7707 52.9775 58.2376C53.4445 58.7046 54.0394 59.0226 54.6871 59.1514C55.3348 59.2802 56.0061 59.214 56.6162 58.9612C57.2263 58.7085 57.7477 58.2804 58.1145 57.7313C58.4813 57.1822 58.677 56.5366 58.6769 55.8762C58.6762 54.9911 58.3244 54.1423 57.6986 53.5163C57.0727 52.8902 56.2241 52.538 55.3389 52.537V52.5383Z" fill="white"/>
<path d="M55.3389 58.0545C54.9078 58.0546 54.4864 57.9269 54.1279 57.6875C53.7694 57.4481 53.49 57.1077 53.3249 56.7095C53.1598 56.3113 53.1166 55.873 53.2006 55.4502C53.2846 55.0274 53.4922 54.639 53.7969 54.3341C54.1017 54.0293 54.4901 53.8216 54.9128 53.7375C55.3356 53.6533 55.7739 53.6965 56.1722 53.8614C56.5705 54.0263 56.9109 54.3057 57.1504 54.6641C57.3899 55.0225 57.5177 55.4439 57.5177 55.875C57.5172 56.4528 57.2875 57.0067 56.879 57.4153C56.4706 57.8239 55.9167 58.0538 55.3389 58.0545ZM55.3389 54.9935C55.1644 54.9934 54.9937 55.045 54.8486 55.1419C54.7034 55.2388 54.5902 55.3766 54.5234 55.5378C54.4565 55.699 54.439 55.8764 54.473 56.0476C54.5071 56.2188 54.5911 56.376 54.7145 56.4995C54.8379 56.6229 54.9952 56.7069 55.1663 56.7409C55.3375 56.7749 55.5149 56.7574 55.6762 56.6906C55.8374 56.6237 55.9752 56.5105 56.072 56.3654C56.1689 56.2202 56.2206 56.0495 56.2204 55.875C56.2201 55.6413 56.1271 55.4173 55.9619 55.2521C55.7966 55.0868 55.5726 54.9938 55.3389 54.9935Z" fill="white"/>
<path d="M29.3229 58.0545C28.8918 58.0545 28.4705 57.9267 28.1121 57.6872C27.7536 57.4477 27.4743 57.1073 27.3093 56.7091C27.1444 56.3108 27.1012 55.8726 27.1853 55.4498C27.2694 55.0271 27.477 54.6387 27.7818 54.3339C28.0866 54.0291 28.4749 53.8215 28.8977 53.7374C29.3205 53.6533 29.7587 53.6965 30.1569 53.8615C30.5552 54.0264 30.8956 54.3058 31.135 54.6642C31.3745 55.0226 31.5024 55.444 31.5024 55.875C31.5018 56.4529 31.2721 57.0069 30.8634 57.4156C30.4548 57.8242 29.9008 58.054 29.3229 58.0545ZM29.3229 54.9935C29.1484 54.9935 28.9778 55.0453 28.8327 55.1422C28.6876 55.2392 28.5746 55.377 28.5078 55.5382C28.4411 55.6995 28.4236 55.8769 28.4577 56.048C28.4918 56.2191 28.5759 56.3763 28.6993 56.4997C28.8228 56.623 28.98 56.707 29.1512 56.741C29.3224 56.7749 29.4997 56.7574 29.6609 56.6905C29.8221 56.6236 29.9598 56.5105 30.0567 56.3653C30.1536 56.2201 30.2052 56.0495 30.2051 55.875C30.2049 55.6412 30.1119 55.417 29.9464 55.2517C29.781 55.0864 29.5567 54.9935 29.3229 54.9935Z" fill="white"/>
<path d="M29.3229 60.6082C28.3864 60.6082 27.4709 60.3305 26.6922 59.8102C25.9135 59.2899 25.3066 58.5504 24.9482 57.6851C24.5898 56.8199 24.496 55.8678 24.6788 54.9493C24.8615 54.0308 25.3124 53.1871 25.9747 52.5248C26.6369 51.8626 27.4806 51.4116 28.3991 51.2289C29.3177 51.0462 30.2697 51.14 31.135 51.4984C32.0002 51.8568 32.7397 52.4637 33.26 53.2424C33.7803 54.0211 34.058 54.9366 34.058 55.8731C34.0572 57.1287 33.558 58.3326 32.6702 59.2204C31.7824 60.1082 30.5785 60.6074 29.3229 60.6082ZM29.3229 52.4391C28.643 52.4391 27.9783 52.6408 27.4129 53.0185C26.8476 53.3963 26.407 53.9332 26.1468 54.5614C25.8866 55.1896 25.8185 55.8808 25.9511 56.5477C26.0838 57.2145 26.4112 57.8271 26.892 58.3079C27.3728 58.7887 27.9853 59.1161 28.6522 59.2488C29.3191 59.3814 30.0103 59.3133 30.6385 59.0531C31.2667 58.7929 31.8036 58.3523 32.1814 57.7869C32.5591 57.2216 32.7607 56.5569 32.7607 55.877C32.7607 55.4255 32.6718 54.9785 32.4991 54.5614C32.3263 54.1443 32.0731 53.7653 31.7538 53.4461C31.4346 53.1268 31.0556 52.8736 30.6385 52.7008C30.2214 52.5281 29.7744 52.4391 29.3229 52.4391Z" fill="white"/>
<path d="M45.947 50.5003H44.6497C44.4777 50.5003 44.3127 50.432 44.1911 50.3103C44.0694 50.1887 44.0011 50.0237 44.0011 49.8516C44.0011 49.6796 44.0694 49.5146 44.1911 49.393C44.3127 49.2713 44.4777 49.203 44.6497 49.203H45.947C46.1191 49.203 46.2841 49.2713 46.4057 49.393C46.5274 49.5146 46.5957 49.6796 46.5957 49.8516C46.5957 50.0237 46.5274 50.1887 46.4057 50.3103C46.2841 50.432 46.1191 50.5003 45.947 50.5003Z" fill="white"/>
<path d="M38.4876 50.5003H37.1903C37.0182 50.5003 36.8533 50.432 36.7316 50.3103C36.61 50.1887 36.5416 50.0237 36.5416 49.8516C36.5416 49.6796 36.61 49.5146 36.7316 49.393C36.8533 49.2713 37.0182 49.203 37.1903 49.203H38.4876C38.6596 49.203 38.8246 49.2713 38.9462 49.393C39.0679 49.5146 39.1362 49.6796 39.1362 49.8516C39.1362 50.0237 39.0679 50.1887 38.9462 50.3103C38.8246 50.432 38.6596 50.5003 38.4876 50.5003Z" fill="white"/>
<path d="M40.542 38.8246H32.515C32.3429 38.8246 32.178 38.7563 32.0563 38.6346C31.9347 38.513 31.8663 38.348 31.8663 38.176V35.5814C31.8663 35.4094 31.9347 35.2444 32.0563 35.1227C32.178 35.0011 32.3429 34.9327 32.515 34.9327H40.542C40.714 34.9327 40.879 35.0011 41.0007 35.1227C41.1223 35.2444 41.1907 35.4094 41.1907 35.5814V38.176C41.1907 38.348 41.1223 38.513 41.0007 38.6346C40.879 38.7563 40.714 38.8246 40.542 38.8246ZM33.1636 37.5273H39.8934V36.23H33.1636V37.5273Z" fill="white"/>
<path d="M46.3655 36.23H26.6914C26.5193 36.23 26.3544 36.1617 26.2327 36.0401C26.1111 35.9184 26.0427 35.7534 26.0427 35.5814C26.0427 35.4094 26.1111 35.2444 26.2327 35.1227C26.3544 35.0011 26.5193 34.9327 26.6914 34.9327H46.3655C46.5376 34.9327 46.7026 35.0011 46.8242 35.1227C46.9458 35.2444 47.0142 35.4094 47.0142 35.5814C47.0142 35.7534 46.9458 35.9184 46.8242 36.0401C46.7026 36.1617 46.5376 36.23 46.3655 36.23Z" fill="white"/>
<path d="M44.7796 36.2275H33.0247C32.8527 36.2275 32.6877 36.1591 32.5661 36.0375C32.4444 35.9158 32.3761 35.7508 32.3761 35.5788C32.3761 35.4068 32.4444 35.2418 32.5661 35.1202C32.6877 34.9985 32.8527 34.9302 33.0247 34.9302H44.1309V26.6787C44.1309 26.5775 44.0907 26.4805 44.0192 26.409C43.9477 26.3375 43.8507 26.2973 43.7495 26.2973H34.0548C33.9537 26.2975 33.8568 26.3377 33.7853 26.4092C33.7138 26.4807 33.6736 26.5776 33.6734 26.6787V29.0528C33.6734 29.2248 33.6051 29.3898 33.4834 29.5114C33.3618 29.6331 33.1968 29.7014 33.0247 29.7014C32.8527 29.7014 32.6877 29.6331 32.5661 29.5114C32.4444 29.3898 32.3761 29.2248 32.3761 29.0528V26.6787C32.3766 26.2336 32.5536 25.807 32.8683 25.4922C33.1831 25.1775 33.6097 25.0005 34.0548 25H43.7476C44.193 25 44.6201 25.1768 44.9353 25.4916C45.2504 25.8063 45.4277 26.2333 45.4282 26.6787V35.5788C45.4282 35.7508 45.3599 35.9158 45.2382 36.0375C45.1166 36.1591 44.9516 36.2275 44.7796 36.2275Z" fill="white"/>
<path d="M38.9014 36.23H28.6884C28.5164 36.23 28.3514 36.1617 28.2298 36.04C28.1081 35.9184 28.0398 35.7534 28.0398 35.5814V30.0815C28.0403 29.6362 28.2174 29.2093 28.5322 28.8943C28.847 28.5794 29.2739 28.4022 29.7191 28.4015H37.8701C38.3155 28.402 38.7425 28.5792 39.0574 28.8941C39.3724 29.2091 39.5496 29.6361 39.5501 30.0815V35.5814C39.5501 35.7534 39.4817 35.9184 39.3601 36.04C39.2384 36.1617 39.0734 36.23 38.9014 36.23ZM29.3371 34.9327H38.2528V30.0815C38.2526 29.98 38.2122 29.8828 38.1405 29.8111C38.0688 29.7393 37.9715 29.699 37.8701 29.6988H29.7191C29.6178 29.699 29.5206 29.7394 29.449 29.8111C29.3773 29.8829 29.3371 29.9801 29.3371 30.0815V34.9327Z" fill="white"/>
</symbol><symbol id="icon-maindirection-guide" viewBox="0 0 85 85">
<circle cx="42.5" cy="42.5" r="42" stroke="white"/>
<path d="M61.5231 39.9084H49.4648C50.011 38.6542 50.243 37.2387 50.184 35.8432C51.6685 35.9249 53.0297 34.8319 53.0297 33.2683C53.0297 32.7285 52.8623 32.2272 52.5773 31.8128C53.0429 31.5039 53.3508 30.9757 53.3508 30.3762V29.1438C53.3508 28.1934 52.5777 27.4204 51.6274 27.4204H50.1839V23.0673C50.184 20.2732 47.9108 18 45.1167 18H37.9846C35.1904 18 32.9173 20.2732 32.9173 23.0673V27.4203H31.4737C30.5234 27.4203 29.7503 28.1934 29.7503 29.1437V30.3761C29.7503 30.9756 30.0583 31.5038 30.5238 31.8127C30.2388 32.2271 30.0715 32.7284 30.0715 33.2682C30.0715 34.7694 31.4013 35.9911 32.9172 35.8431C32.785 37.1629 33.1349 38.7458 33.6398 39.9083H21.5781C20.1565 39.9083 19 41.0648 19 42.4865V49.3883C19 50.81 20.1565 51.9665 21.5781 51.9665H24.3525C24.2883 52.2212 24.2398 52.48 24.2076 52.7415C23.8711 52.7308 23.5344 52.8207 23.2411 53.0094C22.7686 53.3135 22.4866 53.8264 22.4866 54.3815V56.5328H21.5542C20.92 56.5328 20.3613 56.983 20.2257 57.6032C19.9932 58.6665 19.8863 59.7559 19.9081 60.8411C19.9261 61.7407 20.0329 62.6431 20.2256 63.5234C20.3613 64.1437 20.9201 64.5938 21.5541 64.5938H22.4866V65.2969C22.4866 65.6852 22.8014 66 23.1897 66C23.578 66 23.8928 65.6852 23.8928 65.2969V64.5938H24.2923C25.5832 64.5938 26.6335 63.5435 26.6335 62.2525V58.8741C26.6335 57.5831 25.5832 56.5328 24.2923 56.5328H23.8929V54.3816C23.9023 54.1961 24.0721 54.0892 24.2749 54.1732L31.6676 57.5361V65.2969C31.6676 65.6852 31.9824 66 32.3707 66C32.759 66 33.0738 65.6852 33.0738 65.2969V57.5357L40.8476 53.9993V65.2969C40.8476 65.6852 41.1624 66 41.5507 66C41.939 66 42.2538 65.6852 42.2538 65.2969V53.9992C42.4266 54.0846 49.8423 57.446 50.028 57.5359V65.2969C50.028 65.6852 50.3428 66 50.7311 66C51.1194 66 51.4342 65.6852 51.4342 65.2969V57.5359L58.8268 54.1731C59.0334 54.0898 59.199 54.196 59.2085 54.3816V56.5329H58.8092C57.5182 56.5329 56.4679 57.5832 56.4679 58.8742V62.2526C56.4679 63.5436 57.5182 64.5938 58.8092 64.5938H59.2086V65.297C59.2086 65.6853 59.5234 66.0001 59.9118 66.0001C60.3001 66.0001 60.6149 65.6853 60.6149 65.297V64.5938H61.5473C62.1813 64.5938 62.7401 64.1437 62.8758 63.5235C63.0685 62.6431 63.1753 61.7407 63.1934 60.8412C63.2151 59.756 63.1083 58.6666 62.8758 57.6033C62.7401 56.9831 62.1814 56.5329 61.5472 56.5329H60.6149V54.3816C60.6149 53.8265 60.3328 53.3136 59.8604 53.0095C59.567 52.8208 59.2304 52.7308 58.8938 52.7415C58.8617 52.48 58.8131 52.2213 58.749 51.9666H61.5233C62.9449 51.9666 64.1014 50.8101 64.1014 49.3884V42.4866C64.1013 41.0649 62.9448 39.9084 61.5231 39.9084ZM22.8701 50.5603H21.5781C20.9319 50.5603 20.4062 50.0347 20.4062 49.3884V42.4866C20.4062 41.8403 20.9319 41.3147 21.5781 41.3147H22.8701V50.5603ZM24.2922 57.9392C24.8077 57.9392 25.2272 58.3586 25.2272 58.8742V62.2526C25.2272 62.7682 24.8077 63.1876 24.2922 63.1876H21.5916C21.4233 62.4078 21.33 61.6091 21.314 60.813C21.2946 59.8501 21.3881 58.8834 21.5917 57.9393H24.2922V57.9392ZM61.5095 57.9392C61.7132 58.8833 61.8065 59.8501 61.7872 60.813C61.7713 61.609 61.6778 62.4078 61.5096 63.1875H58.8091C58.2935 63.1875 57.8741 62.7681 57.8741 62.2525V58.8741C57.8741 58.3585 58.2935 57.9391 58.8091 57.9391H61.5095V57.9392ZM56.0125 41.3147V48.1724C55.3899 47.7757 54.6992 47.4863 53.9716 47.3264L47.0645 45.8085C46.5314 45.6917 46.1445 45.2106 46.1445 44.6644V43.7633C46.6851 43.4222 47.1929 43.0204 47.656 42.5573C48.0416 42.1717 48.3846 41.7551 48.686 41.3148H56.0125V41.3147ZM50.1841 34.4369V32.0996C50.9063 31.9894 51.6235 32.5112 51.6235 33.2682C51.6235 34.0115 50.9132 34.5521 50.1841 34.4369ZM34.3235 23.0673C34.3235 21.0486 35.9658 19.4062 37.9846 19.4062H45.1167C47.1354 19.4062 48.7777 21.0486 48.7777 23.0673V27.4203H34.3235V23.0673ZM32.9172 34.4369C32.1784 34.5263 31.4778 34.0436 31.4778 33.2683C31.4778 32.5145 32.1984 31.9918 32.9172 32.0997V34.4369ZM31.4737 30.6934C31.2988 30.6934 31.1566 30.5511 31.1566 30.3762V29.1438C31.1566 28.9688 31.2989 28.8266 31.4737 28.8266H51.6275C51.8025 28.8266 51.9447 28.9689 51.9447 29.1438V30.3762C51.9447 30.5512 51.8024 30.6934 51.6275 30.6934H39.8339C39.4456 30.6934 39.1308 31.0082 39.1308 31.3965C39.1308 31.7848 39.4456 32.0996 39.8339 32.0996H48.7778V36.4528C48.7788 38.3913 48.0168 40.2076 46.6616 41.5628C46.1933 42.0311 45.6711 42.4253 45.1104 42.7437C44.0223 43.3616 42.8415 43.68 41.5506 43.68C37.5656 43.68 34.3234 40.4378 34.3234 36.4528V32.0996H36.5526C36.9409 32.0996 37.2558 31.7848 37.2558 31.3965C37.2558 31.0082 36.9409 30.6934 36.5526 30.6934H31.4737ZM45.1577 46.0639L41.5506 49.6709L37.9436 46.0639C38.2439 45.6041 38.3883 45.0412 38.3631 44.4762C39.3498 44.8696 40.4253 45.0863 41.5506 45.0863C42.6602 45.0863 43.737 44.8763 44.7381 44.4789C44.69 45.0247 44.8702 45.6224 45.1577 46.0639ZM27.0888 41.3147H34.4201C35.0889 42.2925 35.9535 43.1262 36.9568 43.7593V44.6644C36.9568 45.2106 36.5699 45.6917 36.0362 45.8086L29.1296 47.3264C28.402 47.4863 27.7113 47.7757 27.0887 48.1724V41.3147H27.0888ZM24.8906 50.5603H24.2763V41.3147H25.6826V49.3917C25.374 49.7508 25.1097 50.1435 24.8906 50.5603ZM32.3703 56.3108L25.5759 53.2201C25.7052 51.0471 27.2861 49.1715 29.4317 48.6998L33.6804 47.7661L39.1437 53.2294L32.3703 56.3108ZM50.731 56.3108L43.9577 53.2295L45.2861 51.901C45.5607 51.6264 45.5607 51.1812 45.2861 50.9067C45.0115 50.6321 44.5663 50.6321 44.2918 50.9067L42.5892 52.6093C41.9246 52.3302 41.1766 52.3302 40.512 52.6093L35.3106 47.408L36.3376 47.1823C36.5294 47.1403 36.7114 47.075 36.8838 46.993L40.9206 51.0299C41.0888 51.1982 41.3126 51.2909 41.5505 51.2909C41.7885 51.2909 42.0123 51.1982 42.1803 51.03L46.2172 46.993C46.3894 47.075 46.5713 47.1402 46.763 47.1822L47.7904 47.408L46.6341 48.5644C46.3595 48.839 46.3595 49.2842 46.6341 49.5587C46.9087 49.8333 47.3539 49.8333 47.6284 49.5587L49.4208 47.7663L53.6695 48.6999C55.8151 49.1716 57.396 51.0472 57.5253 53.2202L50.731 56.3108ZM58.8249 50.5603H58.2107C57.9919 50.1439 57.7269 49.7505 57.4188 49.3917V41.3147H58.825V50.5603H58.8249ZM62.695 49.3884C62.695 50.0347 62.1693 50.5603 61.5231 50.5603H60.2312V41.3147H61.5231C62.1693 41.3147 62.695 41.8403 62.695 42.4866V49.3884ZM45.3768 35.9352C45.7651 35.9352 46.0799 35.6204 46.0799 35.2321V33.7016C46.0799 33.3133 45.7651 32.9985 45.3768 32.9985C44.9884 32.9985 44.6736 33.3133 44.6736 33.7016V35.2321C44.6736 35.6204 44.9884 35.9352 45.3768 35.9352ZM37.0214 33.7016V35.2321C37.0214 35.6204 37.3362 35.9352 37.7245 35.9352C38.1128 35.9352 38.4276 35.6204 38.4276 35.2321V33.7016C38.4276 33.3133 38.1128 32.9985 37.7245 32.9985C37.3362 32.9985 37.0214 33.3133 37.0214 33.7016ZM39.682 40.3318C40.072 40.5457 40.7057 40.8025 41.5099 40.8109C42.3209 40.8194 43.0187 40.5515 43.4192 40.3318C43.7597 40.1451 43.8843 39.7177 43.6975 39.3772C43.5108 39.0367 43.0833 38.9122 42.7428 39.0988C42.4829 39.2414 42.0597 39.4105 41.5247 39.4047C41.0117 39.3993 40.6072 39.2354 40.3583 39.0988C40.0177 38.912 39.5904 39.0367 39.4037 39.3772C39.2169 39.7177 39.3416 40.1451 39.682 40.3318Z" fill="white"/>
</symbol><symbol id="icon-maindirection-hotel" viewBox="0 0 85 85">
<circle cx="42.5" cy="42.5" r="42" stroke="white"/>
<path d="M62 63.5001V35.0001C62 34.6558 61.7656 34.3559 61.4316 34.2724L47 30.6641V26.7501C47 26.4102 46.7715 26.1132 46.4434 26.0253L23.9434 20.0253C23.7185 19.9653 23.4779 20.0133 23.2933 20.1554C23.1084 20.2971 23 20.5168 23 20.7501V63.5001H20V65.0001H65V63.5001H62ZM24.5 21.7249L45.5 27.3243V63.5001H41.75V55.2501C41.75 54.8359 41.4142 54.5001 41 54.5001H29C28.5858 54.5001 28.25 54.8359 28.25 55.2501V63.5001H24.5V21.7249ZM29.75 56.0001H34.25V63.5001H29.75V56.0001ZM35.75 63.5001V56.0001H40.25V63.5001H35.75ZM51.5 63.5001V57.5001H56V63.5001H51.5ZM57.5 63.5001V56.7501C57.5 56.3359 57.1642 56.0001 56.75 56.0001H50.75C50.3358 56.0001 50 56.3359 50 56.7501V63.5001H47V32.2107L60.5 35.5857V63.5001H57.5Z" fill="white"/>
<path d="M29.75 51.5009H32.75C33.1642 51.5009 33.5 51.165 33.5 50.7509V47.7509C33.5 47.3367 33.1642 47.0009 32.75 47.0009H29.75C29.3358 47.0009 29 47.3367 29 47.7509V50.7509C29 51.165 29.3358 51.5009 29.75 51.5009ZM30.5 48.5009H32V50.0009H30.5V48.5009Z" fill="white"/>
<path d="M37.25 51.5009H40.25C40.6642 51.5009 41 51.165 41 50.7509V47.7509C41 47.3367 40.6642 47.0009 40.25 47.0009H37.25C36.8358 47.0009 36.5 47.3367 36.5 47.7509V50.7509C36.5 51.165 36.8358 51.5009 37.25 51.5009ZM38 48.5009H39.5V50.0009H38V48.5009Z" fill="white"/>
<path d="M52.25 48.5009H49.25C48.8358 48.5009 48.5 48.8367 48.5 49.2509V52.2509C48.5 52.665 48.8358 53.0009 49.25 53.0009H52.25C52.6642 53.0009 53 52.665 53 52.2509V49.2509C53 48.8367 52.6642 48.5009 52.25 48.5009ZM51.5 51.5009H50V50.0009H51.5V51.5009Z" fill="white"/>
<path d="M58.25 48.5009H55.25C54.8358 48.5009 54.5 48.8367 54.5 49.2509V52.2509C54.5 52.665 54.8358 53.0009 55.25 53.0009H58.25C58.6642 53.0009 59 52.665 59 52.2509V49.2509C59 48.8367 58.6642 48.5009 58.25 48.5009ZM57.5 51.5009H56V50.0009H57.5V51.5009Z" fill="white"/>
<path d="M52.25 42.5009H49.25C48.8358 42.5009 48.5 42.8367 48.5 43.2509V46.2509C48.5 46.665 48.8358 47.0009 49.25 47.0009H52.25C52.6642 47.0009 53 46.665 53 46.2509V43.2509C53 42.8367 52.6642 42.5009 52.25 42.5009ZM51.5 45.5009H50V44.0009H51.5V45.5009Z" fill="white"/>
<path d="M58.25 42.5009H55.25C54.8358 42.5009 54.5 42.8367 54.5 43.2509V46.2509C54.5 46.665 54.8358 47.0009 55.25 47.0009H58.25C58.6642 47.0009 59 46.665 59 46.2509V43.2509C59 42.8367 58.6642 42.5009 58.25 42.5009ZM57.5 45.5009H56V44.0009H57.5V45.5009Z" fill="white"/>
<path d="M52.25 36.5009H49.25C48.8358 36.5009 48.5 36.8367 48.5 37.2509V40.2508C48.5 40.665 48.8358 41.0008 49.25 41.0008H52.25C52.6642 41.0008 53 40.665 53 40.2508V37.2509C53 36.8367 52.6642 36.5009 52.25 36.5009ZM51.5 39.5009H50V38.0009H51.5V39.5009Z" fill="white"/>
<path d="M58.25 36.5009H55.25C54.8358 36.5009 54.5 36.8367 54.5 37.2509V40.2508C54.5 40.665 54.8358 41.0008 55.25 41.0008H58.25C58.6642 41.0008 59 40.665 59 40.2508V37.2509C59 36.8367 58.6642 36.5009 58.25 36.5009ZM57.5 39.5009H56V38.0009H57.5V39.5009Z" fill="white"/>
<path d="M29.75 45.5009H32.75C33.1642 45.5009 33.5 45.165 33.5 44.7509V41.7509C33.5 41.3367 33.1642 41.0009 32.75 41.0009H29.75C29.3358 41.0009 29 41.3367 29 41.7509V44.7509C29 45.165 29.3358 45.5009 29.75 45.5009ZM30.5 42.5009H32V44.0009H30.5V42.5009Z" fill="white"/>
<path d="M37.25 45.5009H40.25C40.6642 45.5009 41 45.165 41 44.7509V41.7509C41 41.3367 40.6642 41.0009 40.25 41.0009H37.25C36.8358 41.0009 36.5 41.3367 36.5 41.7509V44.7509C36.5 45.165 36.8358 45.5009 37.25 45.5009ZM38 42.5009H39.5V44.0009H38V42.5009Z" fill="white"/>
<path d="M29.75 39.5009H32.75C33.1642 39.5009 33.5 39.165 33.5 38.7509V35.7509C33.5 35.3367 33.1642 35.0009 32.75 35.0009H29.75C29.3358 35.0009 29 35.3367 29 35.7509V38.7509C29 39.165 29.3358 39.5009 29.75 39.5009ZM30.5 36.5009H32V38.0009H30.5V36.5009Z" fill="white"/>
<path d="M37.25 39.5009H40.25C40.6642 39.5009 41 39.165 41 38.7509V35.7509C41 35.3367 40.6642 35.0009 40.25 35.0009H37.25C36.8358 35.0009 36.5 35.3367 36.5 35.7509V38.7509C36.5 39.165 36.8358 39.5009 37.25 39.5009ZM38 36.5009H39.5V38.0009H38V36.5009Z" fill="white"/>
<path d="M29.75 33.5009H32.75C33.1642 33.5009 33.5 33.165 33.5 32.7509V29.7509C33.5 29.3367 33.1642 29.0009 32.75 29.0009H29.75C29.3358 29.0009 29 29.3367 29 29.7509V32.7509C29 33.165 29.3358 33.5009 29.75 33.5009ZM30.5 30.5009H32V32.0009H30.5V30.5009Z" fill="white"/>
<path d="M37.25 33.5009H40.25C40.6642 33.5009 41 33.165 41 32.7509V29.7509C41 29.3367 40.6642 29.0009 40.25 29.0009H37.25C36.8358 29.0009 36.5 29.3367 36.5 29.7509V32.7509C36.5 33.165 36.8358 33.5009 37.25 33.5009ZM38 30.5009H39.5V32.0009H38V30.5009Z" fill="white"/>
</symbol><symbol id="icon-maindirection-med" viewBox="0 0 85 85">
<circle cx="42.5" cy="42.5" r="42" stroke="white"/>
<path d="M30.25 22.625C30.2503 22.3267 30.369 22.0408 30.5799 21.8299C30.7908 21.619 31.0767 21.5003 31.375 21.5H51.625C51.9233 21.5003 52.2092 21.619 52.4201 21.8299C52.631 22.0408 52.7497 22.3267 52.75 22.625V26.75H54.25V22.625C54.2492 21.9291 53.9724 21.2618 53.4803 20.7697C52.9882 20.2776 52.3209 20.0008 51.625 20H31.375C30.6791 20.0008 30.0118 20.2776 29.5197 20.7697C29.0276 21.2618 28.7508 21.9291 28.75 22.625V26.75H30.25V22.625Z" fill="white"/>
<path d="M52.75 59H30.25V56.75H28.75V62.375C28.7508 63.0709 29.0276 63.7382 29.5197 64.2303C30.0118 64.7224 30.6791 64.9992 31.375 65H51.625C52.3209 64.9992 52.9882 64.7224 53.4803 64.2303C53.9724 63.7382 54.2492 63.0709 54.25 62.375V56.75H52.75V59ZM51.625 63.5H31.375C31.0767 63.4997 30.7908 63.381 30.5799 63.1701C30.369 62.9592 30.2503 62.6733 30.25 62.375V60.5H52.75V62.375C52.7497 62.6733 52.631 62.9592 52.4201 63.1701C52.2092 63.381 51.9233 63.4997 51.625 63.5Z" fill="white"/>
<path d="M38.5 23.75H44.5V25.25H38.5V23.75Z" fill="white"/>
<path d="M62.5 53.5625C62.5 53.6122 62.4802 53.6599 62.4451 53.6951C62.4099 53.7302 62.3622 53.75 62.3125 53.75H20.6875C20.6378 53.75 20.5901 53.7302 20.5549 53.6951C20.5198 53.6599 20.5 53.6122 20.5 53.5625V34.25H19V53.5625C19.0005 54.0099 19.1785 54.4388 19.4948 54.7552C19.8112 55.0715 20.2401 55.2495 20.6875 55.25H62.3125C62.7599 55.2495 63.1888 55.0715 63.5052 54.7552C63.8215 54.4388 63.9995 54.0099 64 53.5625V47.75H62.5V53.5625Z" fill="white"/>
<path d="M62.3125 28.25H20.6875C20.2401 28.2505 19.8112 28.4285 19.4948 28.7448C19.1785 29.0612 19.0005 29.4901 19 29.9375V32.75H20.5V29.9375C20.5 29.8878 20.5198 29.8401 20.5549 29.8049C20.5901 29.7698 20.6378 29.75 20.6875 29.75H62.3125C62.3622 29.75 62.4099 29.7698 62.4451 29.8049C62.4802 29.8401 62.5 29.8878 62.5 29.9375V46.25H64V29.9375C63.9995 29.4901 63.8215 29.0612 63.5052 28.7448C63.1888 28.4285 62.7599 28.2505 62.3125 28.25Z" fill="white"/>
<path d="M46.75 47.75H48.25V50.75H46.75V47.75Z" fill="white"/>
<path d="M43.75 47.75H45.25V50.75H43.75V47.75Z" fill="white"/>
<path d="M49.75 47.75H52.75V50.75H49.75V47.75Z" fill="white"/>
<path d="M54.25 47.75H55.75V50.75H54.25V47.75Z" fill="white"/>
<path d="M57.25 47.75H60.25V50.75H57.25V47.75Z" fill="white"/>
<path d="M43.75 40.25H54.25V41.75H43.75V40.25Z" fill="white"/>
<path d="M55.75 40.25H60.25V41.75H55.75V40.25Z" fill="white"/>
<path d="M49.75 43.25H60.25V44.75H49.75V43.25Z" fill="white"/>
<path d="M43.75 43.25H48.25V44.75H43.75V43.25Z" fill="white"/>
<path d="M43.75 37.25H46.75V38.75H43.75V37.25Z" fill="white"/>
<path d="M48.25 37.25H54.25V38.75H48.25V37.25Z" fill="white"/>
<path d="M52.75 32.75H54.25V34.25H52.75V32.75Z" fill="white"/>
<path d="M55.75 32.75H57.25V34.25H55.75V32.75Z" fill="white"/>
<path d="M58.75 32.75H60.25V34.25H58.75V32.75Z" fill="white"/>
<path d="M43.75 34.25H50.5V35.75H43.75V34.25Z" fill="white"/>
<path d="M40 52.25C40.1989 52.25 40.3897 52.171 40.5303 52.0303C40.671 51.8897 40.75 51.6989 40.75 51.5V32C40.75 31.8011 40.671 31.6103 40.5303 31.4697C40.3897 31.329 40.1989 31.25 40 31.25H23.5C23.3011 31.25 23.1103 31.329 22.9697 31.4697C22.829 31.6103 22.75 31.8011 22.75 32V51.5C22.75 51.6989 22.829 51.8897 22.9697 52.0303C23.1103 52.171 23.3011 52.25 23.5 52.25H40ZM24.25 48.9491C24.2513 48.5295 24.3799 48.1202 24.6189 47.7754C24.8579 47.4305 25.1959 47.1664 25.5883 47.0178L29.2375 45.65L29.65 46.2004C29.8945 46.5264 30.2116 46.791 30.5761 46.9733C30.9406 47.1555 31.3425 47.2504 31.75 47.2504C32.1575 47.2504 32.5594 47.1555 32.9239 46.9733C33.2884 46.791 33.6055 46.5264 33.85 46.2004L34.2625 45.65L37.9114 47.0188C38.3037 47.1672 38.6417 47.4312 38.8807 47.7759C39.1197 48.1205 39.2485 48.5296 39.25 48.9491V50.75H24.25V48.9491ZM33.1642 44.6143L32.65 45.3C32.5452 45.4398 32.4093 45.5532 32.2531 45.6313C32.0969 45.7094 31.9247 45.75 31.75 45.75C31.5753 45.75 31.4031 45.7094 31.2469 45.6313C31.0907 45.5532 30.9548 45.4398 30.85 45.3L30.3358 44.6143L30.7906 43.25H32.7094L33.1642 44.6143ZM34 40.625C33.9997 40.9233 33.881 41.2092 33.6701 41.4201C33.4592 41.631 33.1733 41.7497 32.875 41.75H30.625C30.3267 41.7497 30.0408 41.631 29.8299 41.4201C29.619 41.2092 29.5003 40.9233 29.5 40.625V36.875C29.5003 36.5767 29.619 36.2908 29.8299 36.0799C30.0408 35.869 30.3267 35.7503 30.625 35.75H32.875C33.1733 35.7503 33.4592 35.869 33.6701 36.0799C33.881 36.2908 33.9997 36.5767 34 36.875V40.625ZM39.25 32.75V46.046C38.9995 45.867 38.7267 45.7215 38.4384 45.6133L34.5983 44.1733L34.1754 42.9046C34.5775 42.6751 34.9118 42.3434 35.1444 41.943C35.3771 41.5427 35.4997 41.088 35.5 40.625V36.875C35.4992 36.1791 35.2224 35.5118 34.7303 35.0197C34.2382 34.5276 33.5709 34.2508 32.875 34.25H30.625C29.9291 34.2508 29.2618 34.5276 28.7697 35.0197C28.2776 35.5118 28.0008 36.1791 28 36.875V40.625C28.0003 41.088 28.1229 41.5427 28.3556 41.943C28.5882 42.3434 28.9225 42.6751 29.3246 42.9046L28.9017 44.1733L25.0616 45.6133C24.7733 45.7215 24.5005 45.867 24.25 46.046V32.75H39.25Z" fill="white"/>
</symbol><symbol id="icon-maindirection-org" viewBox="0 0 85 85">
<circle cx="42.5" cy="42.5" r="42" stroke="white"/>
<path d="M60.0765 43.0068C60.0768 41.9762 59.9877 40.9474 59.8109 39.932L58.3486 40.1875C59.4372 46.4263 56.8201 52.7317 51.6337 56.3657L50.4382 54.4139C50.0338 53.7594 49.9986 52.9419 50.3447 52.2548L50.6821 51.5804C50.8071 51.3286 51.0644 51.1695 51.3456 51.1706H52.3922C53.3036 51.1735 54.124 50.6183 54.4599 49.7711L55.4641 47.2594C55.5699 46.9967 55.6243 46.7155 55.6235 46.4321V44.7992C55.6246 44.4053 55.4681 44.027 55.1887 43.749L54.2979 42.8586C53.8464 42.4064 53.1561 42.2944 52.5842 42.5803L50.7578 43.4939C50.5491 43.5983 50.3034 43.5983 50.0943 43.4939L47.1257 42.0096C46.8749 41.8842 46.7169 41.6276 46.7176 41.3475V39.2961C46.7176 38.4763 46.053 37.8117 45.2333 37.8117C44.8235 37.8117 44.4912 37.4794 44.4912 37.0696V36.3274C44.4912 36.0941 44.6013 35.8741 44.788 35.7338L47.163 33.9527L46.2723 32.7652L43.8976 34.5463C43.3384 34.9681 43.0087 35.6273 43.0069 36.3274V37.0696C43.0069 38.2991 44.0038 39.2961 45.2333 39.2961V41.3475C45.2304 42.1915 45.7077 42.9637 46.464 43.3388L49.4326 44.8231C50.0599 45.1351 50.797 45.1351 51.4243 44.8231L53.251 43.9103L54.1414 44.8006V46.4335C54.1418 46.5278 54.1233 46.6212 54.0881 46.7089L53.0832 49.221C52.9716 49.5036 52.698 49.6888 52.3943 49.6877H51.3478C50.5038 49.6848 49.7316 50.1621 49.3569 50.9184L49.0191 51.5931C48.4422 52.7379 48.5009 54.1004 49.1742 55.1916L50.3839 57.1666C45.812 59.7985 40.2477 60.05 35.457 57.842L36.3677 57.234C36.4887 57.1528 36.6311 57.1089 36.7771 57.1079H38.6807C39.2718 57.1097 39.8389 56.8748 40.2557 56.4556L42.3546 54.3567C42.7735 53.9399 43.0087 53.3728 43.0069 52.7817V49.354C43.0069 48.9517 42.8978 48.5571 42.6916 48.2117L41.1062 45.5606C40.7007 44.8985 39.9806 44.4937 39.204 44.4912H37.1214C36.376 44.4904 35.6795 44.8626 35.266 45.4826L34.4459 46.7176H32.6166C31.7969 46.7176 31.1323 47.3822 31.1323 48.202V49.6196C31.1323 49.8714 31.0044 50.1063 30.7924 50.2429L28.4768 51.7363C26.816 49.1278 25.9347 46.0991 25.9372 43.0068C25.9372 42.7583 25.9445 42.5111 25.9557 42.2647H27.2465C27.5277 42.264 27.785 42.4231 27.91 42.6753L28.779 44.4169C29.0302 44.9195 29.5447 45.2359 30.1068 45.2333H30.8903C31.3566 45.234 31.7962 45.0159 32.0771 44.6437C32.3583 44.2716 32.4481 43.7892 32.3199 43.341L31.3744 40.0382H32.8391C33.345 40.0382 33.8353 39.8661 34.23 39.5501L36.6525 37.6121C37.4327 36.9859 37.7005 35.9168 37.3077 34.9968L36.0372 32.0281C35.8908 31.6868 36.0194 31.29 36.3379 31.099L38.2067 29.9778C38.884 29.5694 39.2953 28.833 39.2877 28.0419L39.2754 26.9562C41.6689 26.5069 44.1331 26.5996 46.4861 27.228L46.8662 25.797C39.4954 23.826 31.6879 26.7682 27.4513 33.1135C23.2147 39.4588 23.4897 47.7975 28.1354 53.8497C32.7812 59.9022 40.7655 62.3233 47.9903 59.8707C55.2151 57.4181 60.0754 50.6364 60.0765 43.0068V43.0068ZM37.7933 27.3074L37.802 28.0629C37.8052 28.3268 37.6679 28.5721 37.4414 28.7076L35.5719 29.8292C34.6203 30.405 34.2365 31.5929 34.6717 32.6166L35.9422 35.5853C36.0738 35.8918 35.9846 36.2488 35.7241 36.4575L33.3015 38.3952C33.17 38.4988 33.0069 38.5546 32.8391 38.5539H31.3744C30.908 38.5532 30.4684 38.7717 30.1876 39.1439C29.9064 39.5157 29.8165 39.9984 29.9448 40.4466L30.8903 43.749H30.1068L29.2374 42.011C28.8627 41.2547 28.0905 40.7775 27.2465 40.7804H26.093C26.9867 34.3713 31.5726 29.0907 37.7933 27.3074V27.3074ZM29.3288 52.9517L31.5969 51.4898C32.2336 51.0811 32.6177 50.3759 32.6166 49.6196V48.202H34.4459C34.9424 48.202 35.4059 47.9537 35.6809 47.5406L36.5039 46.306C36.6416 46.0994 36.8735 45.9755 37.1214 45.9755H39.204C39.4609 45.9758 39.6998 46.1088 39.8349 46.3274L41.4171 48.9738C41.4863 49.0887 41.5225 49.2199 41.5225 49.354V52.7817C41.5225 52.9789 41.4446 53.168 41.3051 53.3072L39.2062 55.4061C39.067 55.5456 38.8779 55.6239 38.6807 55.6235H36.7771C36.3372 55.6235 35.9067 55.754 35.5407 55.9982L33.9578 57.0553C32.1695 55.9924 30.5985 54.5998 29.3288 52.9517V52.9517Z" fill="white"/>
<path d="M21.5347 43.7291L20.0543 43.8324C20.0891 44.3347 20.1417 44.8431 20.2109 45.3424L21.6818 45.1391C21.6173 44.6731 21.5673 44.1944 21.5347 43.7291V43.7291Z" fill="white"/>
<path d="M23.7851 32.7482L22.4664 32.0669C22.2348 32.5119 22.0156 32.9776 21.8152 33.4421L23.1781 34.0306C23.3665 33.5972 23.5713 33.166 23.7851 32.7482Z" fill="white"/>
<path d="M21.9235 46.5358L20.4703 46.8409C20.5743 47.3359 20.6932 47.8316 20.8327 48.3165L22.2605 47.9135C22.1337 47.4598 22.0202 46.9982 21.9235 46.5358Z" fill="white"/>
<path d="M21.9051 38.0835L20.4505 37.7867C20.3504 38.2785 20.2649 38.7833 20.1982 39.2848L21.6691 39.4816C21.7315 39.0134 21.8108 38.5427 21.9051 38.0835Z" fill="white"/>
<path d="M25.2567 30.3229L24.0424 29.468C23.7532 29.8797 23.4734 30.308 23.2114 30.7407L24.4805 31.5104C24.7255 31.1056 24.9867 30.7066 25.2567 30.3229Z" fill="white"/>
<path d="M22.6613 35.3516L21.2618 34.8588C21.0933 35.3375 20.9404 35.8238 20.8059 36.309L22.237 36.7047C22.3609 36.2532 22.504 35.7984 22.6613 35.3516Z" fill="white"/>
<path d="M21.5296 40.8924L20.0453 40.796C20.0152 41.2805 20 41.7701 20 42.2648V42.3122L21.4843 42.2648C21.4843 41.8042 21.4995 41.3468 21.5296 40.8924Z" fill="white"/>
<path d="M22.6918 49.2642L21.2952 49.7642C21.4658 50.2408 21.6536 50.7151 21.8547 51.1743L23.2151 50.5807C23.0274 50.1509 22.8512 49.7088 22.6918 49.2642Z" fill="white"/>
<path d="M27.0422 28.1185L25.9551 27.1085C25.6115 27.4796 25.276 27.8648 24.9592 28.2551L26.1123 29.1904C26.4077 28.8251 26.7211 28.4646 27.0422 28.1185Z" fill="white"/>
<path d="M39.3704 21.6855L39.1624 20.2146C38.6652 20.2838 38.1615 20.3719 37.6658 20.4759L37.9705 21.9298C38.4329 21.8312 38.9037 21.7493 39.3704 21.6855Z" fill="white"/>
<path d="M42.1967 21.4843L42.1905 20C41.6828 20 41.1722 20.0203 40.6729 20.0558L40.7783 21.5401C41.2469 21.5028 41.7194 21.4843 42.1967 21.4843Z" fill="white"/>
<path d="M36.5931 22.2681L36.1902 20.8396C35.7071 20.9759 35.2193 21.1317 34.7432 21.3034L35.2447 22.7001C35.6893 22.5406 36.1427 22.3957 36.5931 22.2681Z" fill="white"/>
<path d="M29.1091 26.1787L28.1695 25.0299C27.7792 25.3488 27.3947 25.6858 27.0276 26.0308L28.0433 27.1129C28.3862 26.7907 28.7456 26.4762 29.1091 26.1787Z" fill="white"/>
<path d="M33.9288 23.2242L33.3349 21.8645C32.8758 22.0656 32.4155 22.2867 31.9666 22.5211L32.6536 23.8362C33.0707 23.6173 33.4998 23.414 33.9288 23.2242Z" fill="white"/>
<path d="M31.419 24.5356L30.6424 23.2701C30.2119 23.5343 29.7861 23.8163 29.3762 24.108L30.2365 25.3176C30.6196 25.0469 31.0167 24.7816 31.419 24.5356Z" fill="white"/>
<path d="M50.5582 61.3241L51.1522 62.6845C51.6146 62.4834 52.0744 62.2631 52.5212 62.0308L51.8385 60.7139C51.42 60.9306 50.9895 61.1364 50.5582 61.3241V61.3241Z" fill="white"/>
<path d="M57.4551 56.4444L58.5404 57.4583C58.8847 57.0873 59.221 56.7042 59.5391 56.3132L58.3882 55.3757C58.0907 55.741 57.7758 56.1009 57.4551 56.4444V56.4444Z" fill="white"/>
<path d="M55.3848 58.3809L56.3226 59.5311C56.7129 59.2126 57.0974 58.8766 57.4663 58.5327L56.4534 57.4478C56.1074 57.771 55.7511 58.0819 55.3848 58.3809V58.3809Z" fill="white"/>
<path d="M59.2467 54.2447L60.4589 55.1043C60.7499 54.6923 61.0311 54.2654 61.2931 53.8334L60.0255 53.0619C59.7798 53.4609 59.5185 53.8602 59.2467 54.2447V54.2447Z" fill="white"/>
<path d="M53.0714 60.0178L53.8426 61.2847C54.2716 61.0227 54.6981 60.7422 55.1109 60.4505L54.2528 59.2394C53.8708 59.5119 53.4715 59.7739 53.0714 60.0178Z" fill="white"/>
<path d="M47.8918 62.274L48.2926 63.7036C48.7771 63.5677 49.2649 63.4126 49.7407 63.2434L49.241 61.8453C48.7956 62.0062 48.3437 62.1479 47.8918 62.274Z" fill="white"/>
<path d="M62.9977 43.6831L64.4784 43.7824C64.5124 43.2794 64.5295 42.7688 64.5295 42.2648H63.0452C63.0452 42.7413 63.0292 43.2142 62.9977 43.6831V43.6831Z" fill="white"/>
<path d="M62.6154 46.4908L64.0692 46.7876C64.1711 46.2955 64.2569 45.7907 64.3254 45.2899L62.8545 45.0902C62.7907 45.5613 62.7103 46.0313 62.6154 46.4908V46.4908Z" fill="white"/>
<path d="M61.8533 49.2203L63.2513 49.7168C63.4213 49.2388 63.5757 48.7521 63.7108 48.268L62.2809 47.869C62.1544 48.3195 62.0105 48.7742 61.8533 49.2203Z" fill="white"/>
<path d="M60.7216 51.8221L62.0395 52.506C62.2718 52.0606 62.4914 51.5967 62.6926 51.1329L61.3314 50.5389C61.1437 50.9731 60.9383 51.4043 60.7216 51.8221Z" fill="white"/>
<path d="M23.8257 51.8573L22.5099 52.5444C22.7436 52.9897 22.9955 53.4351 23.2575 53.8645L24.5273 53.0905C24.2794 52.6908 24.0449 52.2759 23.8257 51.8573Z" fill="white"/>
<path d="M28.238 59.5573C28.6312 59.8769 29.0389 60.1856 29.4491 60.4752L30.3025 59.2601C29.9162 58.9872 29.539 58.7017 29.1708 58.4038L28.238 59.5573Z" fill="white"/>
<path d="M33.4191 62.703C33.88 62.9027 34.3565 63.0904 34.836 63.2604L35.331 61.8608C34.8856 61.7018 34.4403 61.5275 34.0105 61.3412L33.4191 62.703Z" fill="white"/>
<path d="M30.7189 61.3057C31.1523 61.5691 31.5984 61.8192 32.0452 62.0478L32.7272 60.7287C32.3101 60.5135 31.8944 60.2798 31.4893 60.0341L30.7189 61.3057Z" fill="white"/>
<path d="M26.0116 57.4844C26.358 57.8555 26.7204 58.2153 27.0868 58.5574L28.0993 57.471C27.7565 57.1517 27.418 56.8147 27.0944 56.4697L26.0116 57.4844Z" fill="white"/>
<path d="M25.3042 54.2751L24.0931 55.1329C24.3849 55.5442 24.6943 55.9493 25.0132 56.3414L26.1598 55.4011C25.863 55.0372 25.576 54.6589 25.3042 54.2751Z" fill="white"/>
<path d="M45.1167 62.851L45.3178 64.3212C45.8161 64.2527 46.3198 64.1668 46.8155 64.0635L46.5144 62.6104C46.0498 62.706 45.5816 62.7872 45.1167 62.851V62.851Z" fill="white"/>
<path d="M39.2599 64.3284C39.7564 64.3954 40.2648 64.4465 40.7714 64.4769L40.8703 62.9926C40.396 62.9615 39.9216 62.9133 39.4603 62.851L39.2599 64.3284Z" fill="white"/>
<path d="M42.2869 63.0452V64.5295C42.7953 64.5295 43.3059 64.5118 43.8056 64.477L43.7038 62.9927C43.2363 63.0278 42.7641 63.0452 42.2869 63.0452Z" fill="white"/>
<path d="M36.2852 63.717C36.7729 63.8525 37.2701 63.9728 37.7622 64.0739L38.059 62.62C37.5995 62.5258 37.1357 62.4135 36.6816 62.2874L36.2852 63.717Z" fill="white"/>
<path d="M48.3507 26.263L47.9238 33.5215C47.8618 34.5796 48.255 35.6139 49.0044 36.364L50.4441 37.8023L53.0645 30.9841L55.7135 33.6327V36.9087C55.7124 37.4982 55.9473 38.0643 56.3658 38.4796L57.6526 39.7675L59.2268 37.1438L59.6044 37.5207C60.1636 38.0998 60.9913 38.3317 61.77 38.1281C62.5484 37.9244 63.1561 37.3163 63.3601 36.5379C63.5638 35.7595 63.3315 34.9315 62.7528 34.3727L62.3759 33.9955L64.9999 32.4209L63.7131 31.1323C63.2967 30.713 62.73 30.4782 62.1389 30.48H58.8615L56.2172 27.8321L63.0394 25.2084L61.5964 23.768C60.8474 23.0178 59.8128 22.625 58.755 22.6881L51.4965 23.115L49.1091 20.7265C48.2278 19.8858 46.8413 19.8858 45.96 20.7265C45.0903 21.5962 45.0903 23.0059 45.96 23.8756L48.3507 26.263ZM49.8839 35.1228C49.544 34.6938 49.3737 34.1545 49.4052 33.6081L49.7545 27.6708L51.9187 29.835L49.8839 35.1228ZM57.3602 37.3663C57.2555 37.2344 57.1982 37.071 57.1978 36.9025V35.1134L58.1469 36.061L57.3602 37.3663ZM62.1382 31.9621C62.3067 31.9625 62.4701 32.0198 62.602 32.1245L61.2946 32.9134L60.3466 31.9665L62.1382 31.9621ZM58.8416 24.1695C59.3881 24.1372 59.9277 24.3079 60.3564 24.6482L55.0656 26.683L52.9014 24.5188L58.8416 24.1695ZM47.0102 21.7767C47.2998 21.4875 47.769 21.4875 48.0589 21.7767L61.7033 35.4214C61.9925 35.711 61.9925 36.1803 61.7033 36.4698C61.4098 36.7507 60.9474 36.7507 60.6539 36.4698L47.0102 22.8254C46.721 22.5355 46.721 22.0666 47.0102 21.7767Z" fill="white"/>
</symbol><symbol id="icon-maindirection-transf" viewBox="0 0 85 85">
<circle cx="42.5" cy="42.5" r="42" stroke="white"/>
<path d="M41.1442 19.042C40.4724 18.3701 39.5791 18 38.6289 18C37.9039 18 37.2119 18.2155 36.6262 18.6161C36.0405 18.2154 35.3485 18 34.6235 18C33.6734 18 32.78 18.3701 32.1082 19.0419C31.4362 19.7138 31.0662 20.607 31.0662 21.5574C31.0662 22.5075 31.4362 23.4009 32.1082 24.0729L36.1136 28.078C36.2551 28.2195 36.4408 28.2903 36.6263 28.2903C36.8118 28.2903 36.9975 28.2195 37.1391 28.0779L41.1442 24.0727C42.5308 22.6855 42.5307 20.4288 41.1442 19.042ZM40.1185 23.0473L36.6264 26.5396L33.1338 23.0473C32.7359 22.6494 32.5167 22.1202 32.5167 21.5574C32.5167 20.9947 32.7357 20.4655 33.1337 20.0676C33.5316 19.6696 34.0607 19.4504 34.6235 19.4504C35.1863 19.4504 35.7154 19.6696 36.1136 20.0677C36.2495 20.2036 36.434 20.28 36.6264 20.28C36.8188 20.28 37.0032 20.2036 37.1391 20.0676C37.537 19.6696 38.0661 19.4504 38.6289 19.4504C39.1917 19.4504 39.7206 19.6696 40.1185 20.0676C40.9398 20.889 40.9397 22.2258 40.1185 23.0473Z" fill="white"/>
<path d="M47.8439 26.9149C47.4395 26.5102 46.9018 26.2875 46.3296 26.2875C45.9748 26.2875 45.6332 26.3733 45.3285 26.5349C45.0236 26.3733 44.6819 26.2875 44.327 26.2875C43.755 26.2875 43.2171 26.5103 42.813 26.9147C42.4085 27.319 42.1858 27.8568 42.1858 28.4287C42.1858 29.0007 42.4084 29.5384 42.813 29.9429L44.8159 31.9456C44.9519 32.0815 45.1364 32.1579 45.3288 32.1579C45.521 32.1579 45.7055 32.0815 45.8415 31.9455L47.8439 29.9428C48.6785 29.1079 48.6785 27.7494 47.8439 26.9149ZM46.818 28.9175L45.3286 30.4072L43.8385 28.9174C43.708 28.7869 43.6362 28.6134 43.6362 28.4288C43.6362 28.2442 43.708 28.0707 43.8386 27.9401C43.969 27.8097 44.1424 27.7378 44.3269 27.7378C44.5116 27.7378 44.6853 27.8098 44.8159 27.9404C44.9519 28.0763 45.1363 28.1527 45.3286 28.1527H45.3289C45.5212 28.1526 45.7056 28.0761 45.8416 27.9401C45.9719 27.8097 46.1451 27.7379 46.3295 27.7379C46.514 27.7379 46.6875 27.8098 46.818 27.9404C47.0874 28.2097 47.0872 28.648 46.818 28.9175Z" fill="white"/>
<path d="M59.5943 29.6803C59.4145 29.6803 55.1658 29.706 52.9285 31.9434L48.4325 36.4394L26.9513 31.0698C26.9461 31.0685 26.9408 31.0679 26.9356 31.0667C26.9218 31.0636 26.908 31.0608 26.8942 31.0585C26.8837 31.0567 26.8732 31.0552 26.8628 31.054C26.8503 31.0525 26.8378 31.0514 26.8253 31.0506C26.8136 31.0497 26.802 31.0491 26.7904 31.0489C26.7787 31.0487 26.7669 31.0488 26.7552 31.0491C26.7435 31.0495 26.7318 31.05 26.7201 31.0508C26.708 31.0518 26.6959 31.0532 26.6838 31.0547C26.6731 31.0561 26.6624 31.0574 26.652 31.0593C26.6384 31.0616 26.625 31.0645 26.6115 31.0676C26.6029 31.0697 26.5944 31.0716 26.5858 31.0739C26.5706 31.0779 26.5557 31.0828 26.5408 31.0879C26.5343 31.0901 26.5276 31.0923 26.521 31.0948C26.5052 31.1008 26.4896 31.1074 26.4741 31.1145C26.4685 31.117 26.463 31.1195 26.4576 31.1222C26.4423 31.1296 26.4274 31.1377 26.4127 31.1463C26.4069 31.1496 26.4009 31.153 26.3953 31.1565C26.382 31.1647 26.369 31.1735 26.3561 31.1826C26.3488 31.1877 26.3417 31.193 26.3346 31.1983C26.3239 31.2066 26.3134 31.2151 26.3032 31.2239C26.2943 31.2316 26.2856 31.2395 26.2771 31.2475C26.2724 31.2519 26.2674 31.2559 26.2628 31.2605L24.2119 33.3111C24.2084 33.3146 24.2055 33.3185 24.2021 33.3219C24.1928 33.3316 24.1839 33.3414 24.1751 33.3516C24.167 33.3611 24.1591 33.3707 24.1515 33.3805C24.1482 33.3847 24.1446 33.3886 24.1414 33.3929C24.1379 33.3976 24.135 33.4026 24.1316 33.4075C24.1237 33.4189 24.116 33.4304 24.1087 33.4422C24.1031 33.4511 24.0978 33.4601 24.0927 33.4692C24.0862 33.4809 24.0799 33.4927 24.0741 33.5047C24.0692 33.5147 24.0645 33.5246 24.0601 33.5347C24.0552 33.546 24.0506 33.5574 24.0463 33.5689C24.0422 33.5799 24.0382 33.5912 24.0346 33.6024C24.0311 33.6132 24.0279 33.624 24.025 33.6349C24.0218 33.647 24.0188 33.6591 24.0161 33.6712C24.0139 33.6817 24.0119 33.6922 24.0101 33.7027C24.0081 33.7152 24.0062 33.7277 24.0048 33.7402C24.0036 33.7509 24.0026 33.7617 24.0019 33.7724C24.001 33.7847 24.0004 33.7969 24.0001 33.8091C23.9999 33.8204 24 33.8316 24.0003 33.843C24.0007 33.8546 24.0011 33.8661 24.002 33.8777C24.0028 33.8897 24.0041 33.9017 24.0055 33.9136C24.0069 33.9244 24.0083 33.9351 24.0102 33.9456C24.0123 33.9582 24.0148 33.9707 24.0177 33.9831C24.0199 33.9932 24.0223 34.0031 24.025 34.0131C24.0284 34.0257 24.0323 34.0382 24.0364 34.0506C24.0396 34.0604 24.0428 34.0701 24.0466 34.0798C24.0511 34.0917 24.056 34.1036 24.0611 34.1153C24.0654 34.1254 24.0701 34.1353 24.0749 34.1452C24.0803 34.1559 24.086 34.1666 24.0919 34.1772C24.0977 34.1878 24.1039 34.1982 24.1103 34.2084C24.1162 34.2179 24.1223 34.2271 24.1286 34.2364C24.1362 34.2472 24.1441 34.2579 24.1523 34.2685C24.1586 34.2768 24.1653 34.2849 24.1721 34.293C24.1811 34.3035 24.1903 34.3138 24.2 34.3238C24.204 34.3281 24.2076 34.3327 24.2117 34.3368C24.2154 34.3405 24.2197 34.3437 24.2234 34.3474C24.2325 34.356 24.2418 34.3644 24.2513 34.3727C24.2614 34.3813 24.2716 34.3897 24.2819 34.3977C24.2858 34.4007 24.2894 34.4042 24.2934 34.4072L39.3419 45.5297L32.0494 52.8222L28.3726 51.5963C28.3654 51.5938 28.3582 51.5924 28.3509 51.5903C28.3374 51.5862 28.3239 51.5821 28.3101 51.5789C28.2983 51.5761 28.2864 51.5741 28.2745 51.5718C28.2636 51.5697 28.2528 51.5677 28.2418 51.5662C28.228 51.5643 28.2144 51.5631 28.2007 51.562C28.1912 51.5612 28.1819 51.5604 28.1724 51.56C28.158 51.5594 28.1437 51.5595 28.1292 51.5598C28.1201 51.56 28.1112 51.5601 28.1021 51.5606C28.0879 51.5614 28.0737 51.5628 28.0596 51.5645C28.0502 51.5656 28.0409 51.5667 28.0316 51.5681C28.0179 51.5702 28.0043 51.5729 27.9907 51.5759C27.9811 51.578 27.9717 51.58 27.9624 51.5823C27.9486 51.5859 27.9352 51.5901 27.9218 51.5944C27.9128 51.5973 27.9039 51.6 27.8949 51.6033C27.8806 51.6086 27.8664 51.6146 27.8525 51.6207C27.8449 51.624 27.8375 51.6271 27.83 51.6307C27.814 51.6384 27.7987 51.6468 27.7832 51.6556C27.779 51.6581 27.7745 51.6599 27.7703 51.6626L27.7608 51.6682C27.7596 51.6689 27.7584 51.6696 27.7572 51.6703L24.3581 53.7098C24.3563 53.7108 24.3547 53.7118 24.353 53.7129L24.3518 53.7136C24.3499 53.7147 24.3484 53.7161 24.3465 53.7172C24.328 53.7285 24.3098 53.7405 24.2923 53.7536C24.2867 53.7577 24.2815 53.7624 24.2761 53.7667C24.263 53.777 24.2499 53.7873 24.2376 53.7986C24.2291 53.8062 24.2215 53.8143 24.2135 53.8222C24.2048 53.8308 24.196 53.8392 24.1878 53.8482C24.177 53.8602 24.1672 53.8726 24.1573 53.8851C24.1526 53.8911 24.1475 53.8967 24.143 53.9029C24.1299 53.9203 24.118 53.9384 24.1067 53.9569C24.1056 53.9588 24.1043 53.9604 24.1031 53.9622C24.103 53.9624 24.1029 53.9626 24.1028 53.9628C24.078 54.0042 24.0575 54.0477 24.0414 54.0929C24.0345 54.1123 24.0289 54.1318 24.0238 54.1516C24.0231 54.1544 24.022 54.1571 24.0214 54.1599C24.0169 54.178 24.0135 54.1962 24.0104 54.2143C24.0096 54.2192 24.0083 54.224 24.0077 54.229C24.0053 54.2443 24.0042 54.2598 24.0029 54.2753C24.0023 54.2834 24.0011 54.2916 24.0008 54.2998C24.0002 54.3115 24.0005 54.3231 24.0006 54.3348C24.0005 54.347 24.0001 54.3591 24.0008 54.3713C24.0011 54.3791 24.0022 54.3868 24.0028 54.3945C24.0041 54.4104 24.0053 54.4261 24.0076 54.442C24.0083 54.4463 24.0094 54.4506 24.0101 54.4549C24.0132 54.4737 24.0167 54.4925 24.0214 54.5111C24.0216 54.512 24.0219 54.5128 24.0221 54.5137C24.0308 54.5473 24.0424 54.5805 24.056 54.6133C24.06 54.6231 24.0636 54.633 24.068 54.6426C24.0692 54.645 24.0707 54.6475 24.0718 54.6499C24.0813 54.6694 24.0913 54.6886 24.1024 54.7073C24.1027 54.7077 24.1028 54.7081 24.103 54.7085C24.1039 54.7099 24.1049 54.711 24.1058 54.7123C24.1198 54.7356 24.1356 54.7579 24.1524 54.7797C24.1574 54.786 24.1626 54.7923 24.1677 54.7985C24.1815 54.8151 24.196 54.831 24.2115 54.8465C24.2171 54.8522 24.2227 54.8582 24.2285 54.8638C24.2483 54.8824 24.2692 54.9002 24.2915 54.9167C24.2986 54.922 24.3062 54.9265 24.3135 54.9314C24.3262 54.9402 24.3384 54.9492 24.3518 54.9571L30.3925 58.5817L29.6816 59.2925C29.3984 59.5757 29.3984 60.0349 29.6816 60.318C29.8233 60.4596 30.0089 60.5305 30.1945 60.5305C30.38 60.5305 30.5656 60.4597 30.7073 60.318L31.4181 59.6072L35.0388 65.6415C35.0398 65.6432 35.0409 65.6449 35.0419 65.6466L35.0426 65.6478C35.043 65.6485 35.0436 65.6491 35.044 65.6498C35.0586 65.674 35.0749 65.6971 35.0925 65.7196C35.0971 65.7256 35.1019 65.7314 35.1067 65.7372C35.1208 65.7543 35.1359 65.7708 35.1519 65.7868C35.1572 65.7921 35.1623 65.7976 35.1677 65.8028C35.1878 65.8216 35.2088 65.8396 35.2314 65.8563C35.2379 65.8612 35.2449 65.8652 35.2516 65.8699C35.2647 65.879 35.2776 65.8883 35.2914 65.8966C35.2943 65.8984 35.2975 65.8996 35.3005 65.9012C35.3182 65.9116 35.3365 65.9203 35.3548 65.929C35.3662 65.9343 35.3772 65.9403 35.3887 65.945C35.4048 65.9516 35.4214 65.9566 35.4379 65.9621C35.4519 65.9667 35.4657 65.972 35.4799 65.9758C35.4942 65.9795 35.5088 65.9817 35.5231 65.9846C35.5394 65.9878 35.5556 65.9919 35.5721 65.994C35.5917 65.9965 35.6116 65.997 35.6316 65.9979C35.6424 65.9984 35.6532 66.0001 35.6638 66.0001C35.664 66.0001 35.6643 66 35.6645 66C35.6647 66 35.665 66.0001 35.6651 66.0001C35.6759 66.0001 35.6867 65.9984 35.6974 65.9979C35.7173 65.997 35.7372 65.9965 35.7568 65.994C35.7733 65.9919 35.7897 65.9879 35.8061 65.9845C35.8204 65.9817 35.8348 65.9795 35.849 65.9759C35.8633 65.9721 35.8773 65.9667 35.8915 65.9619C35.9078 65.9566 35.9241 65.9516 35.9401 65.945C35.9518 65.9402 35.9632 65.9341 35.9748 65.9286C35.9928 65.9201 36.0108 65.9115 36.0281 65.9013C36.0312 65.8996 36.0344 65.8983 36.0376 65.8966C36.052 65.8879 36.0654 65.8783 36.0789 65.8688C36.085 65.8646 36.0913 65.8609 36.0972 65.8564C36.12 65.8396 36.1411 65.8215 36.1614 65.8024C36.1666 65.7975 36.1716 65.7921 36.1767 65.787C36.1927 65.7708 36.208 65.7542 36.2224 65.7368C36.2271 65.7311 36.2319 65.7254 36.2364 65.7195C36.2538 65.6971 36.2702 65.674 36.2848 65.6498C36.2853 65.6491 36.2859 65.6484 36.2863 65.6476L36.2872 65.646C36.2881 65.6445 36.2892 65.6429 36.2901 65.6413L38.3373 62.2289C38.3418 62.2214 38.3454 62.2136 38.3495 62.206C38.3557 62.1948 38.362 62.1837 38.3675 62.1721C38.3729 62.1609 38.3778 62.1495 38.3826 62.1379C38.3868 62.1278 38.3913 62.1178 38.3951 62.1075C38.3997 62.0951 38.4037 62.0825 38.4075 62.0699C38.4106 62.06 38.4137 62.0503 38.4164 62.0402C38.4197 62.0276 38.4224 62.0148 38.4252 62.0021C38.4273 61.9917 38.4295 61.9812 38.4312 61.9706C38.433 61.9585 38.4344 61.9464 38.4357 61.9342C38.437 61.9227 38.4382 61.911 38.4389 61.8994C38.4396 61.8882 38.4398 61.8769 38.4399 61.8657C38.4401 61.8537 38.4402 61.8411 38.4397 61.8285C38.4392 61.8179 38.4383 61.8072 38.4374 61.7966C38.4364 61.7838 38.4353 61.771 38.4336 61.7581C38.432 61.747 38.4298 61.7359 38.4279 61.7249C38.4256 61.7129 38.4236 61.701 38.4207 61.689C38.4177 61.6765 38.414 61.6642 38.4102 61.6518C38.4079 61.6435 38.4061 61.6351 38.4033 61.6269L37.1772 57.95L58.053 37.0743C58.054 37.0732 58.0552 37.0722 58.0563 37.0712C60.2937 34.8338 60.3194 30.5853 60.3194 30.4055C60.3195 30.005 59.9948 29.6803 59.5943 29.6803ZM25.8327 33.7414L26.9978 32.5764L47.2365 37.6353L40.3791 44.4926L25.8327 33.7414ZM57.0331 36.043C57.0323 36.0439 57.0314 36.0445 57.0305 36.0454L35.8347 57.2413C35.8323 57.2438 35.8303 57.2464 35.8279 57.2488C35.818 57.2591 35.8087 57.2697 35.7993 57.2804C35.7924 57.2884 35.7854 57.2963 35.7789 57.3044C35.7717 57.3135 35.7651 57.323 35.7583 57.3325C35.7507 57.343 35.7432 57.3534 35.7363 57.3642C35.7315 57.3716 35.7273 57.3794 35.7228 57.3869C35.7151 57.4 35.7076 57.4129 35.7008 57.4262C35.6975 57.4328 35.6947 57.4396 35.6914 57.4464C35.6847 57.4608 35.678 57.4753 35.6722 57.49C35.6693 57.4975 35.6669 57.5052 35.6642 57.5128C35.6593 57.5268 35.6542 57.5409 35.6501 57.5551C35.6473 57.5653 35.6452 57.5756 35.6426 57.5858C35.6398 57.5977 35.6367 57.6096 35.6344 57.6217C35.6321 57.6346 35.6306 57.6478 35.6289 57.661C35.6276 57.6706 35.6261 57.6801 35.6251 57.6898C35.6239 57.7043 35.6235 57.7187 35.6231 57.7333C35.6229 57.7421 35.6223 57.7508 35.6223 57.7595C35.6224 57.7734 35.6234 57.7872 35.6243 57.801C35.6249 57.811 35.6253 57.8209 35.6264 57.8308C35.6277 57.8427 35.6296 57.8546 35.6315 57.8664C35.6334 57.8787 35.6352 57.8909 35.6379 57.903C35.6398 57.9127 35.6424 57.9223 35.6448 57.9318C35.6484 57.9462 35.6522 57.9604 35.6567 57.9746C35.6576 57.9776 35.6582 57.9807 35.6592 57.9838L36.9215 61.7695L35.6639 63.8656L32.4746 58.5505L35.4929 55.5322C35.7764 55.2488 35.7764 54.7896 35.4932 54.5064C35.2099 54.2232 34.7508 54.2232 34.4676 54.5064L31.4494 57.5246L26.1342 54.3353L28.2304 53.0776L32.0161 54.34C32.0185 54.3408 32.0209 54.3409 32.0233 54.3418C32.0556 54.3522 32.0884 54.3602 32.1215 54.3659C32.1296 54.3673 32.1376 54.3683 32.1457 54.3694C32.1756 54.3735 32.2056 54.3762 32.2357 54.3766C32.239 54.3767 32.2422 54.3775 32.2456 54.3775C32.2493 54.3775 32.2529 54.3766 32.2566 54.3766C32.2853 54.3762 32.3139 54.3737 32.3425 54.3699C32.3515 54.3687 32.3604 54.3675 32.3693 54.366C32.4001 54.3607 32.4307 54.3536 32.4608 54.3442C32.4669 54.3422 32.4728 54.34 32.4789 54.3378C32.5062 54.3285 32.533 54.3176 32.5594 54.3049C32.5643 54.3026 32.5694 54.3005 32.5743 54.298C32.6027 54.2835 32.6302 54.2669 32.6568 54.2485C32.6637 54.2437 32.6705 54.2384 32.6773 54.2334C32.6981 54.2179 32.7181 54.2013 32.7375 54.1833C32.7434 54.1778 32.7498 54.1727 32.7555 54.167C32.7564 54.1662 32.7573 54.1655 32.7581 54.1647L53.954 32.9688C55.265 31.6577 57.6157 31.2816 58.8268 31.1738C58.7205 32.383 58.3466 34.7271 57.0331 36.043Z" fill="white"/>
<path d="M58.9485 63.1729C58.9478 63.1611 58.9466 63.1493 58.9453 63.1375C58.944 63.1265 58.9424 63.1156 58.9405 63.1047C58.9383 63.0909 58.9356 63.0773 58.9325 63.0637C58.9313 63.0584 58.9307 63.0532 58.9294 63.0478L54.2806 44.4503C54.1835 44.0617 53.7895 43.8256 53.4012 43.9227C53.0126 44.0198 52.7764 44.4135 52.8735 44.8021L57.4226 63.0012L56.2577 64.1662L46.8788 51.4767C46.6408 51.1546 46.1867 51.0866 45.8646 51.3246C45.5425 51.5626 45.4745 52.0167 45.7125 52.3388L55.5921 65.7055C55.5945 65.7088 55.5975 65.7118 55.6001 65.7151C55.6114 65.7298 55.6234 65.7439 55.6359 65.7579C55.6426 65.7653 55.649 65.7728 55.6558 65.7799C55.6582 65.7823 55.6601 65.7849 55.6625 65.7872C55.6729 65.7976 55.6839 65.8068 55.6949 65.8165C55.7018 65.8227 55.7085 65.8294 55.7157 65.8353C55.736 65.8519 55.7569 65.8673 55.7783 65.8813C55.7843 65.8852 55.7905 65.8885 55.7965 65.8921C55.8131 65.9023 55.83 65.9122 55.8473 65.921C55.8552 65.9249 55.8632 65.9284 55.8712 65.9321C55.8873 65.9396 55.9036 65.9466 55.9201 65.9528C55.9285 65.956 55.937 65.9588 55.9455 65.9617C55.9622 65.9672 55.9791 65.9721 55.9959 65.9764C56.0045 65.9786 56.0129 65.9808 56.0215 65.9827C56.0394 65.9865 56.0575 65.9895 56.0756 65.9921C56.0833 65.9932 56.0909 65.9946 56.0986 65.9953C56.1236 65.9981 56.1488 65.9996 56.1739 65.9997C56.1746 65.9997 56.1753 65.9998 56.176 65.9998C56.1769 65.9998 56.1777 65.9996 56.1785 65.9996C56.2107 65.9995 56.2429 65.9965 56.2748 65.9921C56.2825 65.991 56.29 65.9901 56.2977 65.9888C56.3295 65.9834 56.3611 65.976 56.3921 65.9663C56.3981 65.9644 56.4041 65.9621 56.41 65.96C56.4404 65.9496 56.4703 65.9374 56.4994 65.923C56.5021 65.9216 56.5047 65.9205 56.5075 65.9192C56.5387 65.9032 56.5687 65.8842 56.5977 65.8633C56.6005 65.8612 56.6036 65.8599 56.6065 65.8578C56.6107 65.8547 56.6143 65.8513 56.6183 65.8482C56.6286 65.8403 56.6386 65.8319 56.6484 65.8234C56.6581 65.8152 56.6675 65.8067 56.6766 65.798C56.6804 65.7943 56.6845 65.7912 56.6883 65.7874L58.739 63.7367C58.743 63.7326 58.7466 63.7281 58.7506 63.724C58.7597 63.7144 58.7684 63.7047 58.7769 63.6947C58.7845 63.6854 58.792 63.6762 58.7993 63.6669C58.8059 63.6582 58.8123 63.6495 58.8185 63.6406C58.8264 63.6295 58.8338 63.6183 58.8411 63.6069C58.8459 63.5989 58.8506 63.5909 58.8552 63.5829C58.8624 63.5703 58.8693 63.5577 58.8756 63.5449C58.8795 63.5368 58.8833 63.5287 58.8869 63.5204C58.8926 63.5076 58.8983 63.4947 58.9032 63.4815C58.9068 63.4722 58.9099 63.4628 58.9131 63.4534C58.9172 63.4412 58.9211 63.429 58.9245 63.4167C58.9276 63.4055 58.9301 63.3942 58.9328 63.383C58.9352 63.372 58.9376 63.3612 58.9395 63.3501C58.9418 63.3373 58.9434 63.3247 58.945 63.3118C58.9463 63.3017 58.9474 63.2916 58.9482 63.2815C58.9493 63.2682 58.9498 63.2549 58.9501 63.2416C58.9504 63.2312 58.9506 63.2209 58.9504 63.2105C58.9501 63.198 58.9494 63.1855 58.9485 63.1729Z" fill="white"/>
</symbol><symbol id="icon-maindirection-vip" viewBox="0 0 85 85">
<circle cx="42.5" cy="42.5" r="42" stroke="white"/>
<path d="M46.5801 49.1804C46.5801 54.1476 50.6068 58.1744 55.574 58.1744C60.5409 58.1744 64.5677 54.1476 64.5677 49.1804C64.5677 44.2135 60.5409 40.1868 55.574 40.1868C50.609 40.1922 46.5855 44.2157 46.5801 49.1804ZM55.574 41.9853C59.5478 41.9853 62.7691 45.2066 62.7691 49.1804C62.7691 53.1542 59.5478 56.3754 55.574 56.3754C51.6003 56.3754 48.379 53.1542 48.379 49.1804C48.3834 45.2088 51.6021 41.9897 55.574 41.9853Z" fill="white"/>
<path d="M50.4348 67.1682H60.714V68.9668H50.4348V67.1682Z" fill="white"/>
<path d="M46.5801 63.5704H64.568V65.3694H46.5801V63.5704Z" fill="white"/>
<path d="M26.7935 63.5704H28.5924V65.3694H26.7935V63.5704Z" fill="white"/>
<path d="M21.3975 65.3694H23.196V67.1683H21.3975V65.3694Z" fill="white"/>
<path d="M26.8834 58.5095C31.5796 50.3305 34.5262 41.265 35.5363 31.8879L43.9008 40.2026C44.0681 40.3692 44.2941 40.4631 44.5303 40.4642C44.5789 40.4646 44.6279 40.4606 44.6758 40.4526C44.961 40.4062 45.2063 40.2255 45.3351 39.9672C47.0306 36.583 46.3666 32.4931 43.6874 29.8194L42.952 29.0835H49.278C49.7747 29.0839 50.1779 28.6815 50.1779 28.1848C50.1782 28.0875 50.1623 27.991 50.1318 27.8992C48.9373 24.3072 45.576 21.8849 41.7905 21.8885H40.6215L45.113 17.3708C45.4635 17.0189 45.4621 16.4496 45.1101 16.0991C45.0419 16.0312 44.9635 15.9746 44.8775 15.9318C41.4919 14.2345 37.3999 14.8981 34.7243 17.5787L33.8655 18.4376C33.5854 18.7195 33.3252 19.0199 33.0857 19.337C32.8492 19.0199 32.5908 18.7195 32.3129 18.4376L31.4541 17.5787C28.7807 14.8999 24.6908 14.2363 21.3074 15.9318C20.8629 16.1539 20.6826 16.6941 20.9046 17.1383C20.9474 17.2242 21.004 17.3026 21.0719 17.3708L25.5685 21.8885H24.3879C20.6024 21.8849 17.2407 24.3072 16.0466 27.8992C15.8892 28.3702 16.1435 28.8796 16.6148 29.0371C16.7066 29.0679 16.8031 29.0835 16.9004 29.0835H23.2202L22.4848 29.8194C19.8056 32.4931 19.1416 36.583 20.8368 39.9672C20.9659 40.2255 21.2112 40.4062 21.4961 40.4526C21.5443 40.4606 21.5929 40.4646 21.6419 40.4642C21.8796 40.4642 22.1074 40.3703 22.2758 40.2026L30.0648 32.4597C29.1004 41.0782 25.8544 49.2833 20.6615 56.2287C19.4526 55.9112 18.2269 55.6612 16.9904 55.4806L16.4283 55.424L16.2484 57.2145L16.7727 57.2657C17.6721 57.3945 18.5658 57.5763 19.4547 57.782C19.2748 58.0077 19.0948 58.237 18.9087 58.4594L20.2882 59.6133C27.1998 51.3957 31.3202 41.1939 32.0542 30.4812L33.0894 29.4525L33.8644 30.2232C32.9188 41.6797 28.9864 52.6885 22.4594 62.1513L23.9325 63.1821C24.6397 62.1727 25.3142 61.1252 25.968 60.0577C30.1751 62.07 33.8898 64.9803 36.8505 68.5836L38.2416 67.444C36.491 65.3156 34.4852 63.4103 32.269 61.7718H69.964V59.9728H29.6043C28.7227 59.4405 27.8127 58.9583 26.8834 58.5095ZM44.2001 37.9621L34.6975 28.5142C37.1281 27.7886 39.7608 28.4471 41.5634 30.2319L42.4222 31.0911C44.2215 32.8871 44.9022 35.5188 44.2001 37.9621ZM47.9058 27.285H40.4589C38.7246 26.4595 36.7678 26.2258 34.888 26.6202C36.1967 24.7799 38.3149 23.6871 40.5732 23.6874H41.7873C44.3297 23.6834 46.6732 25.0615 47.9058 27.285ZM35.1343 19.7093L35.9935 18.8505C37.791 17.0508 40.4237 16.3698 42.8682 17.0722L37.5367 22.4353C35.8063 23.0721 34.3208 24.2382 33.2908 25.7676C32.8724 23.5673 33.5625 21.3018 35.1372 19.7093H35.1343ZM30.1798 18.8505L31.0386 19.7093C31.4392 20.1182 31.7868 20.5761 32.0731 21.0718C31.6656 22.0191 31.433 23.0318 31.3859 24.0615C30.5786 23.3562 29.6486 22.8054 28.6428 22.4353L23.3102 17.0722C25.7539 16.3701 28.3859 17.0512 30.1823 18.8505H30.1798ZM24.385 23.6874H25.5994C27.8591 23.6853 29.9802 24.7778 31.2904 26.6192C29.4117 26.2262 27.4556 26.4599 25.7224 27.285H18.2726C19.5048 25.0626 21.8466 23.6849 24.3879 23.6874H24.385ZM21.9783 37.9621C21.2762 35.5188 21.9572 32.8871 23.7565 31.0911L24.6154 30.2319C25.9092 28.9413 27.6639 28.2189 29.4919 28.2247C30.1664 28.2251 30.8373 28.3212 31.4849 28.5106L21.9783 37.9621Z" fill="white"/>
</symbol><symbol id="icon-measuring" viewBox="0 0 38 26">
<path fill-rule="evenodd" clip-rule="evenodd" d="M23.6698 19.1299H37.1837C37.6337 19.1299 38 19.5272 38 20.0156V22.1081V22.8288V25.3956C38 25.7295 37.7508 26 37.4434 26C37.1359 26 36.8867 25.7295 36.8867 25.3956V23.4332H30.9103C30.6028 23.4332 30.3537 23.1627 30.3537 22.8288C30.3537 22.495 30.6028 22.2245 30.9103 22.2245H36.8867V22.1081V20.3387H23.6698V22.2245H28.644C28.9515 22.2245 29.2006 22.495 29.2006 22.8288C29.2006 23.1627 28.9515 23.4332 28.644 23.4332H23.6698V24.54C23.6698 25.1489 23.2122 25.6442 22.6496 25.6442H11.8349C5.30916 25.6442 0 19.8922 0 12.8221C0 5.75199 5.30916 0 11.8349 0C17.0478 0 21.484 3.67052 23.0581 8.75128H25.0704C25.5548 8.75128 25.9487 9.13581 26.0506 9.70825L26.8125 14.0052C26.8774 14.367 26.8109 14.702 26.6249 14.9471C26.4463 15.1824 26.174 15.312 25.8582 15.312H23.6698V19.1299ZM25.6962 14.1033L24.9615 9.9599H23.3723C23.5668 10.8805 23.6698 11.8386 23.6698 12.8221V14.1033H25.6962ZM1.12768 13.4265H3.15563L3.22852 13.427C3.24225 13.4271 3.25664 13.4273 3.27164 13.4273C3.42186 13.4273 3.62744 13.4122 3.79763 13.2245C3.98228 13.0209 3.97679 12.7793 3.97375 12.6495C3.97278 12.6075 3.97182 12.5641 3.97375 12.507C4.02815 10.8882 4.5033 9.33025 5.34791 8.00148C5.52254 7.72678 5.45894 7.35039 5.20593 7.16078C4.95299 6.97117 4.60616 7.04023 4.4316 7.31493C3.50906 8.76643 2.97216 10.4569 2.87227 12.2177H1.12768C1.40941 6.29357 5.8088 1.52861 11.2783 1.22418V3.11355C9.52509 3.22918 7.86073 3.89099 6.45154 5.03539C6.20536 5.23523 6.15504 5.61404 6.33917 5.88132C6.4485 6.04007 6.61586 6.12371 6.78538 6.12371C6.90138 6.12371 7.01835 6.08455 7.11832 6.00332C8.40483 4.9586 9.9344 4.37302 11.5423 4.30976C11.5952 4.30765 11.6369 4.30866 11.6699 4.30945L11.6728 4.30952L11.6754 4.30957C11.7967 4.31193 12.019 4.31626 12.2051 4.11669C12.395 3.91325 12.3932 3.67147 12.3919 3.49484V3.49477L12.3916 1.22418C18.0458 1.53901 22.5565 6.62065 22.5565 12.822V19.7341V21.3362H12.262C11.7195 21.3362 11.2783 21.8149 11.2783 22.4032V24.4199C5.80888 24.1155 1.40949 19.3506 1.12768 13.4265ZM12.3916 24.4355H22.5566V22.8288V22.545H12.3916V24.4355Z" fill="black"/>
<path fill-rule="evenodd" clip-rule="evenodd" d="M17.1984 19.9333H11.8759C8.38314 19.9333 5.5415 17.0169 5.5415 13.4322C5.5415 9.84872 8.38314 6.93333 11.8759 6.93333C15.3676 6.93333 18.2082 9.8488 18.2082 13.4322V18.8937C18.2082 19.4669 17.7552 19.9333 17.1984 19.9333ZM17.0827 13.4322C17.0827 10.487 14.7469 8.09082 11.8759 8.09082C9.00375 8.09082 6.66702 10.487 6.66702 13.4322C6.66702 16.3787 9.00375 18.7759 11.8759 18.7759H17.0827V13.4322Z" fill="black"/>
<path fill-rule="evenodd" clip-rule="evenodd" d="M13.8987 15.6H9.85167C9.22134 15.6 8.7085 15.1112 8.7085 14.5103V12.354C8.7085 11.7545 9.22134 11.2667 9.85167 11.2667H13.8987C14.529 11.2667 15.0418 11.7545 15.0418 12.354V14.5103C15.0418 15.1112 14.529 15.6 13.8987 15.6ZM13.7703 12.4773H9.98001V14.3894H13.7703V12.4773Z" fill="black"/>
</symbol><symbol id="icon-menu" viewBox="0 0 37 29">
<path d="M35.4583 26H1.54167C0.690667 26 0 26.672 0 27.5C0 28.328 0.690667 29 1.54167 29H35.4583C36.3093 29 37 28.328 37 27.5C37 26.672 36.3093 26 35.4583 26Z" fill="black"/>
<path d="M35.5 0H14.5C13.672 0 13 0.672 13 1.5C13 2.328 13.672 3 14.5 3H35.5C36.328 3 37 2.328 37 1.5C37 0.672 36.328 0 35.5 0Z" fill="black"/>
<path d="M35.4583 9H1.54167C0.690667 9 0 9.672 0 10.5C0 11.328 0.690667 12 1.54167 12H35.4583C36.3093 12 37 11.328 37 10.5C37 9.672 36.3093 9 35.4583 9Z" fill="black"/>
<path d="M35.5 18H14.5C13.672 18 13 18.672 13 19.5C13 20.328 13.672 21 14.5 21H35.5C36.328 21 37 20.328 37 19.5C37 18.672 36.328 18 35.5 18Z" fill="black"/>
</symbol><symbol id="icon-next" viewBox="0 0 44 44">
<rect x="-0.5" y="0.5" width="43" height="43" rx="21.5" transform="matrix(-1 0 0 1 43 0)" stroke="#C4C4C4"/>
<path d="M18.7793 29L24.7793 23.0016L18.7793 17" stroke="white" stroke-width="2" stroke-miterlimit="10"/>
</symbol><symbol id="icon-pagedown-arrow" viewBox="0 0 41 41">
<path class="promo__arrow-path" d="M20.4999 11.0023L20.4999 28.6023" stroke-miterlimit="10"/>
<path class="promo__arrow-path" d="M13.9999 22.6022L20.5004 29.0022L26.9999 22.6022" stroke-miterlimit="10"/>
<path class="promo__arrow-path" d="M0.5 20.5C0.5 9.45431 9.45431 0.5 20.5 0.5C31.5457 0.5 40.5 9.45431 40.5 20.5C40.5 31.5457 31.5457 40.5 20.5 40.5C9.45431 40.5 0.5 31.5457 0.5 20.5Z" stroke-miterlimit="10"/>
</symbol><symbol id="icon-pinterest" viewBox="0 0 16 16">
<path d="M15.5 8C15.5 3.71875 12.0312 0.25 7.75 0.25C3.46875 0.25 0 3.71875 0 8C0 11.3125 2.03125 14.0938 4.90625 15.2188C4.84375 14.625 4.78125 13.6875 4.9375 13C5.09375 12.4062 5.84375 9.15625 5.84375 9.15625C5.84375 9.15625 5.625 8.6875 5.625 8C5.625 6.9375 6.25 6.125 7.03125 6.125C7.6875 6.125 8 6.625 8 7.21875C8 7.875 7.5625 8.875 7.34375 9.8125C7.1875 10.5625 7.75 11.1875 8.5 11.1875C9.875 11.1875 10.9375 9.75 10.9375 7.65625C10.9375 5.78125 9.59375 4.5 7.71875 4.5C5.5 4.5 4.21875 6.15625 4.21875 7.84375C4.21875 8.53125 4.46875 9.25 4.78125 9.625C4.84375 9.6875 4.84375 9.78125 4.84375 9.84375C4.78125 10.0938 4.625 10.625 4.625 10.7188C4.59375 10.875 4.5 10.9062 4.34375 10.8438C3.375 10.375 2.78125 8.96875 2.78125 7.8125C2.78125 5.375 4.5625 3.125 7.90625 3.125C10.5938 3.125 12.6875 5.0625 12.6875 7.625C12.6875 10.2812 11 12.4375 8.65625 12.4375C7.875 12.4375 7.125 12.0312 6.875 11.5312C6.875 11.5312 6.5 13.0312 6.40625 13.375C6.21875 14.0625 5.75 14.9062 5.4375 15.4062C6.15625 15.6562 6.9375 15.75 7.75 15.75C12.0312 15.75 15.5 12.2812 15.5 8Z"/>
</symbol><symbol id="icon-play-button" viewBox="0 0 80 80">
<path fill-rule="evenodd" clip-rule="evenodd" d="M40 80C62.0914 80 80 62.0914 80 40C80 17.9086 62.0914 0 40 0C17.9086 0 0 17.9086 0 40C0 62.0914 17.9086 80 40 80Z" fill="#363838" fill-opacity="0.4"/>
<g filter="url(#filter0_d)">
<path fill-rule="evenodd" clip-rule="evenodd" d="M58.5 39.634C59.1667 40.0189 59.1667 40.9811 58.5 41.366L32.25 56.5215C31.5833 56.9064 30.75 56.4252 30.75 55.6554L30.75 25.3446C30.75 24.5748 31.5833 24.0936 32.25 24.4785L58.5 39.634Z" fill="white" fill-opacity="0.93"/>
</g>

</symbol><symbol id="icon-play-button2" viewBox="0 0 73 73">
<circle cx="36.5" cy="36.5" r="36.5" fill="#1F1E1E"/>
<path d="M57 37L27 54.3205L27 19.6795L57 37Z" fill="#C4C4C4"/>
</symbol><symbol id="icon-prew" viewBox="0 0 44 44">
<rect x="43.5" y="43.5" width="43" height="43" rx="21.5" transform="rotate(-180 43.5 43.5)" stroke="#C4C4C4"/>
<path d="M24 29L18 23.0016L24 17" stroke="white" stroke-width="2" stroke-miterlimit="10"/>
</symbol><symbol id="icon-search" viewBox="0 0 17 17">
<path fill-rule="evenodd" clip-rule="evenodd" d="M11.9579 10.9565L16.7923 15.7909C17.0692 16.0678 17.0692 16.5155 16.7923 16.7924C16.6542 16.9306 16.4729 17 16.2915 17C16.1101 17 15.9288 16.9306 15.7907 16.7924L10.9564 11.9581C9.7997 12.8945 8.32991 13.4583 6.7291 13.4583C3.01889 13.4583 0 10.4394 0 6.72914C0 3.01889 3.01886 0 6.72907 0C10.4393 0 13.4582 3.01893 13.4582 6.72918C13.4582 8.33 12.8944 9.7998 11.9579 10.9565ZM1.41666 6.72914C1.41666 9.65882 3.79946 12.0416 6.7291 12.0416C9.65872 12.0416 12.0415 9.65882 12.0415 6.72914C12.0415 3.79947 9.65875 1.41664 6.7291 1.41664C3.79946 1.41664 1.41666 3.79947 1.41666 6.72914Z"/>
</symbol><symbol id="icon-sofa" viewBox="0 0 38 34">
<path fill-rule="evenodd" clip-rule="evenodd" d="M35.7416 9.63027H36.3301C37.2509 9.63027 38 10.4676 38 11.4969V23.0395C38 24.755 36.7515 26.1506 35.2168 26.1506H33.4832V32.2521C33.4832 33.2158 32.7817 34 31.9194 34C31.1027 34 30.4175 33.2866 30.3596 32.3759L29.9637 26.1505H13.8053C13.4979 26.1505 13.2486 25.8719 13.2486 25.5283C13.2486 25.1847 13.4979 24.9061 13.8053 24.9061H35.2167C36.1376 24.9061 36.8866 24.0687 36.8866 23.0394V11.4968C36.8866 11.1537 36.637 10.8746 36.33 10.8746H34.0398C33.7713 10.8746 33.5466 11.0882 33.4946 11.3716C33.4871 11.412 33.4832 11.4539 33.4832 11.4968V14.4762H34.3797C35.1277 14.4762 35.7363 15.1565 35.7363 15.9927V19.5853C35.7363 20.4215 35.1277 21.1018 34.3797 21.1018H3.62032C2.87227 21.1018 2.26367 20.4216 2.26367 19.5854V15.9928C2.26367 15.1566 2.87227 14.4763 3.62032 14.4763H4.51673V11.4969C4.51673 11.454 4.5128 11.4121 4.50537 11.3716C4.45342 11.0884 4.22861 10.8747 3.96009 10.8747H1.66992C1.36295 10.8747 1.11328 11.1538 1.11328 11.4969V23.0394C1.11328 24.0687 1.86237 24.9061 2.7832 24.9061H11.2077C11.5151 24.9061 11.7643 25.1847 11.7643 25.5283C11.7643 25.8719 11.5151 26.1505 11.2077 26.1505H8.03618L7.64023 32.3759C7.58234 33.2866 6.89715 34 6.08045 34C5.21825 34 4.51673 33.2159 4.51673 32.2521V26.1506H2.7832C1.24851 26.1506 0 24.755 0 23.0395V11.4969C0 10.4676 0.74909 9.63027 1.66992 9.63027H2.2584V2.86218C2.2584 1.284 3.40709 0 4.81895 0H16.9961C17.807 0 18.5305 0.424017 19 1.08356C19.4695 0.424017 20.193 0 21.0039 0H33.181C34.431 0 35.4922 0.998028 35.7043 2.37328C35.7565 2.71193 35.5532 3.03374 35.2503 3.09215C34.9472 3.15038 34.6594 2.92332 34.6072 2.58467C34.4874 1.80798 33.8877 1.24442 33.181 1.24442H21.0038C20.2058 1.24442 19.5566 1.97017 19.5566 2.86218V14.5007L19.5664 14.4986L19.5817 14.4951C19.6767 14.4733 19.7767 14.4734 24.7254 14.4749H24.7258H24.7261H24.7264H24.727H24.7278H24.7287C26.5441 14.4755 29.0116 14.4763 32.3699 14.4763V11.4969C32.3699 10.4676 33.119 9.63027 34.0398 9.63027H34.6283V5.38064C34.6283 5.03702 34.8775 4.75843 35.185 4.75843C35.4924 4.75843 35.7416 5.03702 35.7416 5.38064V9.63027ZM6.67484 32.2862L7.00971 26.122H5.90291V32.2504C5.90291 32.5292 6.07624 32.7561 6.28936 32.7561C6.4912 32.7561 6.66052 32.5497 6.67484 32.2862ZM34.6796 19.6298C34.6796 19.7802 34.57 19.9024 34.4353 19.9024H19.5534V18.2513V16.0287C19.5534 15.8783 19.663 15.7561 19.7977 15.7561H34.4353C34.57 15.7561 34.6796 15.8784 34.6796 16.0287V19.6298ZM3.32039 9.63735H3.911C4.83516 9.63735 5.58695 10.4754 5.58695 11.5057V14.4878C8.96849 14.4878 11.4515 14.487 13.2767 14.4865H13.2807H13.2808C18.2558 14.485 18.3405 14.4849 18.4198 14.5057C18.4274 14.5077 18.4349 14.5098 18.4466 14.5122V2.86312C18.4466 1.97031 17.795 1.2439 16.9941 1.2439H4.77288C3.972 1.2439 3.32039 1.97031 3.32039 2.86312V9.63735ZM3.32039 19.6299V16.0288C3.32039 15.8784 3.43 15.7561 3.56472 15.7561H18.2023C18.337 15.7561 18.4466 15.8784 18.4466 16.0288V18.2514V19.9024H3.56472C3.43 19.9024 3.32039 19.7802 3.32039 19.6299ZM31.7106 32.7561C31.9237 32.7561 32.0971 32.5293 32.0971 32.2504V26.122H30.9903L31.3251 32.2862C31.3395 32.5497 31.5088 32.7561 31.7106 32.7561Z" fill="black"/>
</symbol><symbol id="icon-whatsapp" viewBox="0 0 14 14">
<path d="M11.875 2.0625C10.5938 0.75 8.84375 0 6.96875 0C3.15625 0 0.03125 3.125 0.03125 6.9375C0.03125 8.1875 0.375 9.375 0.96875 10.4062L0 14L3.65625 13.0625C4.6875 13.5938 5.8125 13.9062 6.96875 13.9062C10.8125 13.9062 14 10.7812 14 6.96875C14 5.09375 13.1875 3.375 11.875 2.0625ZM6.96875 12.7188C5.9375 12.7188 4.9375 12.4375 4.03125 11.9062L3.84375 11.7812L1.65625 12.375L2.25 10.25L2.09375 10.0312C1.53125 9.09375 1.21875 8.03125 1.21875 6.9375C1.21875 3.78125 3.8125 1.1875 7 1.1875C8.53125 1.1875 9.96875 1.78125 11.0625 2.875C12.1562 3.96875 12.8125 5.40625 12.8125 6.96875C12.8125 10.125 10.1562 12.7188 6.96875 12.7188ZM10.1562 8.40625C9.96875 8.3125 9.125 7.90625 8.96875 7.84375C8.8125 7.78125 8.6875 7.75 8.5625 7.9375C8.46875 8.09375 8.125 8.5 8.03125 8.625C7.90625 8.71875 7.8125 8.75 7.65625 8.65625C6.625 8.15625 5.96875 7.75 5.28125 6.59375C5.09375 6.28125 5.46875 6.3125 5.78125 5.65625C5.84375 5.53125 5.8125 5.4375 5.78125 5.34375C5.75 5.25 5.375 4.40625 5.25 4.0625C5.09375 3.71875 4.96875 3.75 4.84375 3.75C4.75 3.75 4.625 3.75 4.53125 3.75C4.40625 3.75 4.21875 3.78125 4.0625 3.96875C3.90625 4.15625 3.46875 4.5625 3.46875 5.40625C3.46875 6.28125 4.0625 7.09375 4.15625 7.21875C4.25 7.3125 5.375 9.0625 7.125 9.8125C8.21875 10.3125 8.65625 10.3438 9.21875 10.25C9.53125 10.2188 10.2188 9.84375 10.375 9.4375C10.5312 9.03125 10.5312 8.6875 10.4688 8.625C10.4375 8.53125 10.3125 8.5 10.1562 8.40625Z"/>
</symbol><symbol id="icon-youtube" viewBox="0 0 18 12">
<path d="M17.1562 1.90625C16.9688 1.15625 16.375 0.5625 15.6562 0.375C14.3125 0 9 0 9 0C9 0 3.65625 0 2.3125 0.375C1.59375 0.5625 1 1.15625 0.8125 1.90625C0.4375 3.21875 0.4375 6.03125 0.4375 6.03125C0.4375 6.03125 0.4375 8.8125 0.8125 10.1562C1 10.9062 1.59375 11.4688 2.3125 11.6562C3.65625 12 9 12 9 12C9 12 14.3125 12 15.6562 11.6562C16.375 11.4688 16.9688 10.9062 17.1562 10.1562C17.5312 8.8125 17.5312 6.03125 17.5312 6.03125C17.5312 6.03125 17.5312 3.21875 17.1562 1.90625ZM7.25 8.5625V3.5L11.6875 6.03125L7.25 8.5625Z"/>
</symbol></svg>