<svg width="44" height="49" fill="none" xmlns="http://www.w3.org/2000/svg"><path d="M43.208 6.536l-2.131-3.108-1.79-1.551-.017-1.27L38.421 0l-1.065 2.266-1.61-1.044-.557.567.626 1.256-9.245 8.813-14.559 7.093-4.367.967-1.028.527-2.712 3.506-1.127 3.796-.264 2.098.584 1.252.062-.457 1.04-3.785-.993 7.643-1.126 3.446L0 48.432h1.888l-.57-.95.991-5.01 3.746-7.48-.69 2.812 2.927 10.628h1.99l-.832-1.06-1.396-4.164-.59-6.253 2.145-4.94 1.284-1.254 5.952.009 1.053 1.05-1.925 14.327.077 2.285h1.894l-.698-1.05.26-5.455 2.905-9.986.357.003 6.377 16.488h1.914l-.973-.994-1.733-4.688-2.718-11.83.72-6.068-.352-1.693.331-1.191L36.706 7.922l1.885-.368 4.759 1.732.338-1.342-.48-1.408z" fill="#fff"/></svg>